<svg width="103" height="103" viewBox="0 0 103 103" fill="none" xmlns="http://www.w3.org/2000/svg">
<g filter="url(#filter0_d)">
<path d="M51.5 1.78125C76.675 1.78125 97.2188 22.325 97.2188 47.5C97.2188 72.675 76.675 93.2188 51.5 93.2188C26.325 93.2188 5.78125 72.675 5.78125 47.5C5.78125 22.325 26.325 1.78125 51.5 1.78125ZM51.5 0C25.2563 0 4 21.2563 4 47.5C4 73.7438 25.2563 95 51.5 95C77.7438 95 99 73.7438 99 47.5C99 21.2563 77.7438 0 51.5 0Z" fill="url(#paint0_linear)"/>
<path d="M87.7188 68.1625H84.3938V63.5312C84.3938 62.7 83.6813 62.1062 82.9688 62.1062H76.7938V48.3312C76.7938 47.7375 76.675 47.2625 76.3188 46.9062C76.7938 46.6687 84.3938 42.3937 87.9563 39.425C88.9062 38.5937 89.1438 37.2875 88.4313 36.2187L87.7188 35.15C87.2438 34.3187 86.2938 33.9625 85.3438 34.0812C83.325 34.3187 79.1688 35.0312 73.7063 35.5062V30.875C73.7063 30.5187 73.5875 30.1625 73.4688 29.8062C74.8938 28.975 78.9313 26.8375 80.8313 25.5312C81.7812 24.9375 82.1375 23.75 81.6625 22.6812C81.1875 21.4937 79.8813 20.9 78.575 21.2562C77.15 21.85 74.0625 22.6812 69.7875 22.8C69.55 22.8 69.3125 22.6812 69.1938 22.325L67.8875 18.2875C67.5313 17.1 66.3438 16.5062 65.1563 16.7437C62.9 17.1 58.2688 17.8125 51.5 17.8125C44.7313 17.8125 40.1 17.1 37.9625 16.7437C36.775 16.5062 35.5875 17.2187 35.2313 18.2875L33.925 22.325C33.8063 22.5625 33.5688 22.8 33.3313 22.8C29.0563 22.6812 25.9688 21.7312 24.5438 21.2562C23.3563 20.7812 21.9313 21.375 21.4563 22.6812C21.1 23.75 21.4563 24.9375 22.2875 25.5312C24.1875 26.8375 28.1063 29.0937 29.65 29.8062C29.5313 30.1625 29.4125 30.5187 29.4125 30.875V35.5062C24.0688 34.9125 19.7938 34.3187 17.775 34.0812C16.825 33.9625 15.875 34.3187 15.4 35.15L14.6875 36.2187C13.975 37.2875 14.2125 38.5937 15.1625 39.425C18.25 41.9187 24.6625 45.7187 26.8 46.9062C26.5625 47.3812 26.4438 47.8562 26.4438 48.3312V61.9875H20.2688C19.4375 61.9875 18.8438 62.7 18.8438 63.4125V68.0437H15.2813C14.45 68.0437 13.8563 68.7562 13.8563 69.4687V74.4562C13.8563 75.2875 14.5688 76 15.2813 76H39.8625H63.0188H87.6C88.4313 76 89.025 75.2875 89.025 74.4562V69.4687C89.1438 68.7562 88.55 68.1625 87.7188 68.1625ZM82.6125 63.7687V68.1625H63.0188H61.5938V63.7687H76.675H82.6125ZM41.7625 69.9437H61.3563V71.8437H41.7625V69.9437ZM44.85 47.2625V61.8687H41.4063H36.4188V47.2625H44.85ZM61.5938 61.9875H58.15V47.2625H66.7V61.8687H61.5938V61.9875ZM56.9625 61.9875H46.0375V47.2625H56.9625V61.9875ZM59.8125 63.7687V65.6687H43.1875V63.7687H59.8125ZM43.1875 66.2625H59.8125V68.1625H43.1875V66.2625ZM67.8875 61.9875V47.2625H73.9438C74.5375 47.2625 75.0125 47.7375 75.0125 48.2125V61.8687H67.8875V61.9875ZM23 23.1562C23.1188 22.8 23.475 22.6812 23.8313 22.8C25.7313 23.5125 28.9375 24.3437 33.2125 24.4625C34.2813 24.4625 35.2313 23.8687 35.5875 22.8L36.8938 18.7625C37.0125 18.4062 37.25 18.2875 37.6063 18.2875C39.8625 18.7625 44.6125 19.475 51.5 19.475C58.3875 19.475 63.1375 18.7625 65.3938 18.2875C65.75 18.2875 65.9875 18.4062 66.1063 18.7625L67.4125 22.8C67.7688 23.75 68.7188 24.4625 69.7875 24.4625C74.0625 24.3437 77.2688 23.5125 79.1688 22.8C79.525 22.6812 79.8813 22.8 80 23.1562C80.1188 23.3937 80 23.75 79.7625 23.8687C77.5063 25.4125 72.1625 28.3812 72.0438 28.3812C71.8063 28.2625 71.5688 28.2625 71.3313 28.2625H31.6688C31.4313 28.2625 31.1938 28.2625 30.9563 28.3812C30.9563 28.3812 25.4938 25.4125 23.2375 23.8687C23 23.75 22.8813 23.5125 23 23.1562ZM31.075 30.7562C31.075 30.4 31.3125 30.1625 31.6688 30.1625H71.2125C71.5688 30.1625 71.8063 30.4 71.8063 30.7562V35.625C65.8688 36.2187 58.625 36.6937 51.5 36.6937C44.375 36.6937 37.1313 36.2187 31.075 35.625V30.7562ZM16.1125 37.1687L16.825 36.1C16.9438 35.8625 17.1813 35.7437 17.4188 35.8625C21.6938 36.4562 36.8938 38.5937 51.5 38.5937C66.1063 38.5937 81.3063 36.4562 85.5813 35.8625C85.8187 35.8625 86.0563 35.9812 86.175 36.1L86.8875 37.1687C87.125 37.4062 87.0062 37.7625 86.7688 38C83.2063 40.9687 75.3688 45.3625 75.3688 45.3625C75.25 45.4812 75.1313 45.6 75.0125 45.8375C74.6563 45.7187 74.3 45.6 73.9438 45.6H29.0563C28.7 45.6 28.4625 45.7187 28.1063 45.7187C27.0375 45.125 19.4375 40.7312 16.1125 38C15.9938 37.7625 15.875 37.4062 16.1125 37.1687ZM28.1063 48.3312C28.1063 47.7375 28.5813 47.3812 29.175 47.3812H35.2313V61.9875H28.225V48.3312H28.1063ZM20.3875 63.7687H26.2063H41.2875V68.1625H39.8625H20.3875V63.7687ZM15.6375 74.3375V69.9437H20.15H39.9813V74.3375H15.6375ZM41.7625 74.3375V72.4375H61.3563V74.3375H41.7625ZM87.3625 74.3375H63.0188V69.9437H82.85H87.3625V74.3375Z" fill="url(#paint1_linear)"/>
</g>
<defs>
<filter id="filter0_d" x="0" y="0" width="103" height="103" filterUnits="userSpaceOnUse" color-interpolation-filters="sRGB">
<feFlood flood-opacity="0" result="BackgroundImageFix"/>
<feColorMatrix in="SourceAlpha" type="matrix" values="0 0 0 0 0 0 0 0 0 0 0 0 0 0 0 0 0 0 127 0"/>
<feOffset dy="4"/>
<feGaussianBlur stdDeviation="2"/>
<feColorMatrix type="matrix" values="0 0 0 0 0 0 0 0 0 0 0 0 0 0 0 0 0 0 0.25 0"/>
<feBlend mode="normal" in2="BackgroundImageFix" result="effect1_dropShadow"/>
<feBlend mode="normal" in="SourceGraphic" in2="effect1_dropShadow" result="shape"/>
</filter>
<linearGradient id="paint0_linear" x1="19.9817" y1="11.9626" x2="83.0183" y2="83.0374" gradientUnits="userSpaceOnUse">
<stop stop-color="#B92B27"/>
<stop offset="1" stop-color="#1565C0"/>
</linearGradient>
<linearGradient id="paint1_linear" x1="21.2569" y1="21.355" x2="79.6522" y2="81.6916" gradientUnits="userSpaceOnUse">
<stop stop-color="#B92B27"/>
<stop offset="1" stop-color="#1565C0"/>
</linearGradient>
</defs>
</svg>
