<svg width="103" height="103" viewBox="0 0 103 103" fill="none" xmlns="http://www.w3.org/2000/svg">
<g filter="url(#filter0_d)">
<path d="M67.5312 17.575C68.3625 21.2563 74.5375 24.9375 76.2 25.7688C74.4188 27.3125 72.6375 27.9063 71.5688 28.1438L70.6187 28.3813V29.3313V32.4188V33.6063H71.8062H74.6562L76.675 37.4063H72.2812H71.0938V38.5938V41.8V42.9875H72.2812H74.4188V61.3938V62.5813H75.6063H79.1688V77.3063H58.5063V71.25C58.5063 69.35 57.7937 67.5688 56.3687 66.1438C55.0625 64.8375 53.2812 64.125 51.5 64.125H51.2625C47.4625 64.2438 44.375 67.5688 44.375 71.4875V77.1875H23.7125V62.7H27.275H28.4625V61.5125V43.1063H30.6H31.7875V41.9188V38.7125V37.525H30.6H26.2063L28.225 33.725H31.075H32.2625V32.5375V29.45V28.5L31.3125 28.2625C30.3625 28.025 28.4625 27.4313 26.6813 25.8875C28.3438 24.9375 34.5187 21.375 35.35 17.6938H67.5312V17.575ZM68.4813 16.3875H35.35H34.5188L34.4 17.1C33.925 19.95 28.7 23.5125 25.9688 24.8188L25.4938 25.0563V26.125L25.85 26.4813C27.8687 28.3813 30.125 29.0938 31.1937 29.45V32.5375H28.1062H27.5125L24.9 37.4063L24.6625 37.8813L25.2562 38.8313H30.6V42.0375H28.225H27.275V61.6313H23.3562H22.4062V77.7813V78.7313H44.6125H45.5625V71.8438C45.5625 68.5188 48.175 65.7875 51.2625 65.6688H51.5934C53.1371 65.6688 54.5621 66.2625 55.6309 67.3313C56.8184 68.4 57.4121 69.9438 57.4121 71.4875V77.7813V78.7313H79.4062H80.3563V62.4625V61.5125H75.6063V42.8688V41.9188H72.2812V38.7125H77.15H77.625L78.1 37.7625L75.25 32.4188H71.6875V29.3313C72.875 29.0938 75.0125 28.3813 77.0312 26.3625L77.3875 26.0063L77.2687 25.0563L77.0312 24.9375C74.3 23.5125 69.075 20.0688 68.6 17.2188L68.4813 16.3875Z" fill="white"/>
</g>
<path d="M80.475 61.5125H75.725V42.8688V41.9188H72.4V38.7125H77.2687H77.7437L78.2188 37.7625L75.3687 32.4188H71.8062V29.3313C72.9937 29.0938 75.1312 28.3813 77.15 26.3625L77.5063 26.0063L77.3875 25.0563L77.0312 24.9375C74.3 23.5125 69.075 20.0688 68.6 17.2188L68.4813 16.3875H35.35H34.5188L34.4 17.1C33.925 19.95 28.7 23.5125 25.9688 24.8188L25.4938 25.0563V26.125L25.85 26.4813C27.8687 28.3813 30.125 29.0938 31.1937 29.45V32.5375H28.1062H27.5125L24.9 37.4063L24.6625 37.8813L25.2562 38.8313H30.6V42.0375H28.225H27.275V61.6313H23.3562H22.4062V77.7813V78.7313H44.6125H45.5625V71.8438C45.5625 68.5188 48.175 65.7875 51.2625 65.6688C52.8062 65.6688 54.35 66.2625 55.5375 67.3313C56.725 68.4 57.3188 69.9438 57.3188 71.4875V77.7813V78.7313H79.525H80.475V62.4625V61.5125ZM35.9437 18.1688H67.0562C68.125 21.4938 72.7563 24.5813 75.1313 25.8875C72.9938 27.4313 70.975 27.6688 70.975 27.6688H32.1438C31.9063 27.6688 30.0063 27.3125 27.9875 25.8875C30.2438 24.5813 34.875 21.4938 35.9437 18.1688ZM32.975 29.45H70.025V32.4188H32.975V29.45ZM28.7 34.2H31.3125H70.975H74.4188L75.8438 36.8125H72.4H31.55H27.1562L28.7 34.2ZM32.3812 38.7125H70.5V41.9188H32.3812V38.7125ZM29.0563 43.7H30.6H71.3312H73.825V61.5125H73.2313V64.4813H68.2437V62.4625V61.5125H65.8687V56.8813H69.3125H69.7875L70.2625 56.1688L67.5312 47.7375H36.0625H35.35L32.8562 55.6938L32.7375 56.1688L33.3313 56.8813H37.1312V61.5125H35.7063H34.7562V64.4813H29.7688V62.4625V61.5125H29.175V43.7H29.0563ZM65.9875 55.1H37.9625H34.875L36.6562 49.5188H66.3438L68.125 55.1H65.9875ZM38.7937 56.8813H64.2062V61.5125H38.7937V56.8813ZM78.6938 76.8313H59.1V71.3688C59.1 69.2313 58.2687 67.3313 56.8438 65.9063C55.3 64.4813 53.4 63.7688 51.2625 63.7688C47.1062 63.8875 43.7812 67.45 43.7812 71.725V76.8313H24.3063V63.2938H27.8688V65.3125V66.2625H35.4688H36.4187V63.2938H37.0125H65.0375H66.5812V65.3125V66.2625H74.1812H75.1313V63.2938H78.6938V76.8313Z" fill="url(#paint0_linear)"/>
<g filter="url(#filter1_d)">
<path d="M51.5 1.78125C76.675 1.78125 97.2188 22.325 97.2188 47.5C97.2188 72.675 76.675 93.2188 51.5 93.2188C26.325 93.2188 5.78125 72.675 5.78125 47.5C5.78125 22.325 26.325 1.78125 51.5 1.78125ZM51.5 0C25.2563 0 4 21.2563 4 47.5C4 73.7438 25.2563 95 51.5 95C77.7438 95 99 73.7438 99 47.5C99 21.2563 77.7438 0 51.5 0Z" fill="url(#paint1_linear)"/>
</g>
<defs>
<filter id="filter0_d" x="18.4062" y="16.3875" width="65.95" height="70.3438" filterUnits="userSpaceOnUse" color-interpolation-filters="sRGB">
<feFlood flood-opacity="0" result="BackgroundImageFix"/>
<feColorMatrix in="SourceAlpha" type="matrix" values="0 0 0 0 0 0 0 0 0 0 0 0 0 0 0 0 0 0 127 0"/>
<feOffset dy="4"/>
<feGaussianBlur stdDeviation="2"/>
<feColorMatrix type="matrix" values="0 0 0 0 0 0 0 0 0 0 0 0 0 0 0 0 0 0 0.25 0"/>
<feBlend mode="normal" in2="BackgroundImageFix" result="effect1_dropShadow"/>
<feBlend mode="normal" in="SourceGraphic" in2="effect1_dropShadow" result="shape"/>
</filter>
<filter id="filter1_d" x="0" y="0" width="103" height="103" filterUnits="userSpaceOnUse" color-interpolation-filters="sRGB">
<feFlood flood-opacity="0" result="BackgroundImageFix"/>
<feColorMatrix in="SourceAlpha" type="matrix" values="0 0 0 0 0 0 0 0 0 0 0 0 0 0 0 0 0 0 127 0"/>
<feOffset dy="4"/>
<feGaussianBlur stdDeviation="2"/>
<feColorMatrix type="matrix" values="0 0 0 0 0 0 0 0 0 0 0 0 0 0 0 0 0 0 0.25 0"/>
<feBlend mode="normal" in2="BackgroundImageFix" result="effect1_dropShadow"/>
<feBlend mode="normal" in="SourceGraphic" in2="effect1_dropShadow" result="shape"/>
</filter>
<linearGradient id="paint0_linear" x1="125.5" y1="119" x2="20.7604" y2="25" gradientUnits="userSpaceOnUse">
<stop stop-color="#FFECD2"/>
<stop offset="1" stop-color="#FCB69F"/>
</linearGradient>
<linearGradient id="paint1_linear" x1="125" y1="114" x2="23.4705" y2="22.0186" gradientUnits="userSpaceOnUse">
<stop stop-color="#FFECD2"/>
<stop offset="1" stop-color="#FCB69F"/>
</linearGradient>
</defs>
</svg>
