<svg width="103" height="104" viewBox="0 0 103 104" fill="none" xmlns="http://www.w3.org/2000/svg">
<g filter="url(#filter0_d)">
<path d="M95.1995 62.1965H86.887C86.887 62.1965 86.887 62.1965 86.887 62.0777L84.3933 22.059C84.3933 21.8215 84.2745 21.584 84.1558 21.3465L81.5433 16.0027C81.187 15.409 80.5933 15.0527 79.9995 15.0527H79.287C78.5745 15.0527 77.9808 15.409 77.7433 16.0027L75.1308 21.3465C75.012 21.584 75.012 21.8215 74.8933 22.059L72.8745 54.834L63.4933 55.1902V51.1527C63.4933 50.6777 63.137 50.2027 62.5433 50.2027H51.4995C51.0245 50.2027 50.5495 50.559 50.5495 51.1527V52.8152L49.9558 44.2652C49.9558 43.6715 49.5995 43.1965 49.1245 42.8402L46.3933 41.059C46.1558 40.8215 45.7995 40.8215 45.4433 40.8215C45.3245 40.8215 45.2058 40.8215 45.087 40.8215L42.237 41.4152L42.1183 38.684C42.1183 38.209 41.8808 37.734 41.5245 37.3777L38.3183 34.6465C37.962 34.409 37.6058 34.2902 37.1308 34.2902C36.8933 34.2902 36.537 34.409 36.2995 34.5277L33.4495 36.0715C32.8558 36.4277 32.4995 36.9027 32.4995 37.6152L32.3808 43.3152L29.7683 42.1277V38.4465C29.7683 37.8527 29.5308 37.3777 29.0558 37.0215L22.8808 32.6277C22.5245 32.3902 22.1683 32.2715 21.812 32.2715C21.337 32.2715 20.9808 32.3902 20.6245 32.7465L17.062 36.1902C16.7058 36.5465 16.587 36.9027 16.4683 37.3777L15.2808 62.1965H8.03704C7.56204 62.1965 7.08704 62.5527 7.08704 63.1465C7.08704 63.7402 7.44329 64.0965 8.03704 64.0965H16.8245C16.9433 64.0965 16.9433 64.0965 17.062 64.0965H28.3433C28.462 64.0965 28.5808 64.0965 28.5808 64.0965H33.4495C33.5683 64.0965 33.5683 64.0965 33.687 64.0965H41.287C41.4058 64.0965 41.4058 64.0965 41.5245 64.0965H42.3558H49.4808H51.4995H56.012C55.8933 64.5715 56.012 65.4027 56.962 66.1152C58.2683 67.0652 58.6245 67.3027 59.0995 67.4215C59.0995 67.4215 59.2183 67.4215 59.2183 67.5402L59.5745 67.7777C60.287 68.134 62.0683 68.9652 62.0683 69.559C62.0683 69.6777 61.9495 69.7965 61.5933 70.1527C61.237 70.509 57.7933 73.0027 53.637 72.2902C50.787 71.6965 46.6308 73.2402 42.9495 74.5465C40.5745 75.3777 38.437 76.0902 37.012 76.209C36.537 76.209 35.9433 76.209 35.3495 76.209C31.5495 76.209 25.8495 76.0902 19.5558 82.5027C19.1995 82.859 19.1995 83.4527 19.5558 83.809C19.912 84.1652 20.5058 84.1652 20.862 83.809C26.562 77.8715 31.6683 77.9902 35.3495 77.9902C35.9433 77.9902 36.537 77.9902 37.1308 77.9902C38.7933 77.8715 40.9308 77.159 43.5433 76.209C46.987 75.0215 50.9058 73.5965 53.3995 74.0715C58.387 75.0215 62.4245 71.934 62.8995 71.5777C63.7308 70.984 64.087 70.2715 63.9683 69.4402C63.8495 67.8965 61.9495 67.0652 60.4058 66.3527L60.0495 66.1152C59.9308 66.1152 59.812 65.9965 59.812 65.9965C59.5745 65.8777 59.2183 65.759 58.0308 64.9277C57.7933 64.809 57.6745 64.5715 57.6745 64.5715C57.6745 64.4527 57.7933 64.334 57.7933 64.334H62.3058H70.1433C70.262 64.334 82.0183 64.2152 86.1745 69.6777C86.887 70.7465 87.2433 71.459 87.0058 72.0527C86.6495 73.2402 84.2745 73.834 82.3745 74.4277C80.712 74.9027 79.0495 75.4965 78.2183 76.3277C75.487 79.1777 74.4183 81.5527 75.012 83.334C75.487 84.759 76.7933 85.709 79.0495 86.3027C79.1683 86.3027 79.1683 86.3027 79.287 86.3027C79.6433 86.3027 80.1183 86.0652 80.1183 85.5902C80.237 85.1152 79.8808 84.6402 79.4058 84.5215C77.862 84.1652 76.912 83.5715 76.6745 82.859C76.3183 81.6715 77.387 79.7715 79.4058 77.634C79.8808 77.0402 81.4245 76.684 82.8495 76.209C85.3433 75.4965 87.9558 74.6652 88.5495 72.6465C88.9058 71.459 88.5495 70.1527 87.4808 68.609C85.937 66.5902 83.6808 65.284 81.187 64.334H84.7495C84.8683 64.334 84.8683 64.334 84.987 64.334H94.7245C95.1995 64.334 95.6745 63.9777 95.6745 63.384C95.6745 62.7902 95.6745 62.1965 95.1995 62.1965ZM79.6433 19.0902L84.6308 61.6027H74.7745L79.6433 19.0902ZM82.7308 22.1777L84.3933 48.659L80.8308 18.3777L82.7308 22.1777ZM76.6745 22.1777L78.5745 18.3777L74.8933 50.6777L76.6745 22.1777ZM72.7558 56.6152L72.637 57.684C68.362 56.6152 65.037 57.5652 63.3745 58.3965V56.9715L72.7558 56.6152ZM48.2933 44.2652L49.4808 62.1965H46.2745V42.959L48.2933 44.2652ZM45.2058 42.6027V62.1965H43.187L42.5933 43.1965L45.2058 42.6027ZM40.5745 38.684L40.6933 42.959C40.6933 43.0777 40.6933 43.0777 40.6933 43.1965V62.1965H37.962V36.4277L40.5745 38.684ZM36.7745 36.309V62.1965H33.8058L34.3995 37.4965L36.7745 36.309ZM32.4995 45.0965L32.0245 62.1965H30.2433L30.0058 43.909L32.4995 45.0965ZM28.1058 38.3277L28.462 62.1965H22.5245V34.409L28.1058 38.3277ZM18.3683 37.3777L21.337 34.5277V62.1965H17.1808L18.3683 37.3777ZM52.4495 51.984H61.712V62.1965H52.4495V51.984ZM63.4933 62.1965V60.4152C64.3245 59.9402 67.7683 58.159 72.637 59.4652L72.5183 62.0777C72.5183 62.0777 72.5183 62.0777 72.5183 62.1965H70.6183H70.4995H63.4933Z" fill="url(#paint0_linear)"/>
<path d="M51.5 1.99023C77.0312 1.99023 97.8125 22.7715 97.8125 48.3027C97.8125 73.834 77.0312 94.6152 51.5 94.6152C25.9688 94.6152 5.1875 73.834 5.1875 48.3027C5.1875 22.7715 25.9688 1.99023 51.5 1.99023ZM51.5 0.802734C25.2563 0.802734 4 22.059 4 48.3027C4 74.5465 25.2563 95.8027 51.5 95.8027C77.7438 95.8027 99 74.5465 99 48.3027C99 22.059 77.7438 0.802734 51.5 0.802734Z" fill="url(#paint1_linear)"/>
</g>
<defs>
<filter id="filter0_d" x="0" y="0.802734" width="103" height="103" filterUnits="userSpaceOnUse" color-interpolation-filters="sRGB">
<feFlood flood-opacity="0" result="BackgroundImageFix"/>
<feColorMatrix in="SourceAlpha" type="matrix" values="0 0 0 0 0 0 0 0 0 0 0 0 0 0 0 0 0 0 127 0"/>
<feOffset dy="4"/>
<feGaussianBlur stdDeviation="2"/>
<feColorMatrix type="matrix" values="0 0 0 0 0 0 0 0 0 0 0 0 0 0 0 0 0 0 0.25 0"/>
<feBlend mode="normal" in2="BackgroundImageFix" result="effect1_dropShadow"/>
<feBlend mode="normal" in="SourceGraphic" in2="effect1_dropShadow" result="shape"/>
</filter>
<linearGradient id="paint0_linear" x1="14.1321" y1="13.9892" x2="89.5122" y2="87.4282" gradientUnits="userSpaceOnUse">
<stop stop-color="#654EA3"/>
<stop offset="1" stop-color="#EAAFC8"/>
</linearGradient>
<linearGradient id="paint1_linear" x1="23.3174" y1="10.0412" x2="79.675" y2="86.5266" gradientUnits="userSpaceOnUse">
<stop stop-color="#654EA3"/>
<stop offset="1" stop-color="#EAAFC8"/>
</linearGradient>
</defs>
</svg>
