<svg width="103" height="104" viewBox="0 0 103 104" fill="none" xmlns="http://www.w3.org/2000/svg">
<g filter="url(#filter0_d)">
<path d="M51.5 2.58398C76.675 2.58398 97.2188 23.1277 97.2188 48.3027C97.2188 73.4777 76.675 94.0215 51.5 94.0215C26.325 94.0215 5.78125 73.4777 5.78125 48.3027C5.78125 23.1277 26.325 2.58398 51.5 2.58398ZM51.5 0.802734C25.2563 0.802734 4 22.059 4 48.3027C4 74.5465 25.2563 95.8027 51.5 95.8027C77.7438 95.8027 99 74.5465 99 48.3027C99 22.059 77.7438 0.802734 51.5 0.802734Z" fill="url(#paint0_linear)"/>
<path d="M49.0058 71.8151H48.887V69.3213C48.887 68.3713 48.0558 67.5401 47.1058 67.5401H43.5433V44.6213L46.6308 40.4651C46.8683 40.3463 46.987 39.9901 46.987 39.7526V35.0026C46.987 34.7651 46.8683 34.5276 46.7495 34.4088L44.7308 30.0151L44.8495 29.8963L45.6808 27.5213C45.6808 27.4026 45.6808 27.2838 45.6808 27.1651C45.6808 27.0463 45.6808 26.9276 45.6808 26.8088L44.8495 24.4338C44.7308 24.0776 44.3745 23.8401 44.0183 23.8401H41.9995L41.6433 12.2026C41.6433 11.7276 41.287 11.3713 40.812 11.3713C40.337 11.3713 39.9808 11.7276 39.9808 12.2026L39.6245 23.8401H37.6058C37.2495 23.8401 36.8933 24.0776 36.7745 24.4338L35.9433 26.8088C35.9433 26.9276 35.9433 27.0463 35.9433 27.1651C35.9433 27.2838 35.9433 27.4026 35.9433 27.5213L36.7745 29.8963C36.7745 30.0151 36.7745 30.0151 36.8933 30.0151L34.8745 34.4088C34.7558 34.5276 34.637 34.7651 34.637 35.0026V39.7526C34.637 40.1088 34.7558 40.3463 34.9933 40.4651L38.0808 44.6213V67.5401H34.5183C33.5683 67.5401 32.737 68.3713 32.737 69.3213V71.8151H32.6183C31.6683 71.8151 30.837 72.6463 30.837 73.5963V80.3651C30.837 81.3151 31.6683 82.1463 32.6183 82.1463H49.0058C49.9558 82.1463 50.787 81.3151 50.787 80.3651V73.5963C50.787 72.6463 49.9558 71.8151 49.0058 71.8151ZM43.4245 28.5901H38.1995L37.962 27.9963H43.662L43.4245 28.5901ZM39.7433 30.6088H41.762V33.6963H39.7433V30.6088ZM43.5433 30.3713H44.0183C44.137 30.3713 44.2558 30.3713 44.2558 30.3713L45.9183 34.0526H43.4245V30.3713H43.5433ZM37.487 30.3713H37.962V34.0526H35.4683L37.1308 30.3713C37.3683 30.3713 37.487 30.3713 37.487 30.3713ZM36.2995 35.8338H45.2058V38.8026H36.2995V35.8338ZM41.762 40.7026V67.1838H39.7433V40.7026H41.762ZM43.5433 40.5838H45.7995L43.5433 43.5526V40.5838ZM38.1995 25.2651H43.4245L43.662 25.8588H37.962L38.1995 25.2651ZM35.8245 40.5838H38.0808V43.5526L35.8245 40.5838ZM34.5183 69.3213H47.1058V71.8151H34.5183V69.3213ZM49.0058 80.3651H32.6183V73.5963H34.0433C34.162 73.5963 34.3995 73.7151 34.5183 73.7151H47.1058C47.3433 73.7151 47.462 73.7151 47.5808 73.5963H49.0058V80.3651Z" fill="url(#paint1_linear)"/>
<path d="M81.1875 68.2527C81.1875 60.8902 75.4875 56.0215 66.9375 56.0215C58.3875 56.0215 52.6875 60.8902 52.6875 68.2527V68.3715V80.2465H53.875V69.084H59.2188V82.2652H60.4062V69.084H69.55V78.2277H70.7375V69.084H74.1813V81.909H75.3688V69.084H80.1188V80.2465H81.3063V68.3715C81.1875 68.3715 81.1875 68.3715 81.1875 68.2527ZM54.4688 67.4215C54.9437 60.4152 61.3562 57.9215 66.9375 57.9215C72.5187 57.9215 78.9312 60.4152 79.4062 67.4215H54.4688Z" fill="url(#paint2_linear)"/>
</g>
<defs>
<filter id="filter0_d" x="0" y="0.802734" width="103" height="103" filterUnits="userSpaceOnUse" color-interpolation-filters="sRGB">
<feFlood flood-opacity="0" result="BackgroundImageFix"/>
<feColorMatrix in="SourceAlpha" type="matrix" values="0 0 0 0 0 0 0 0 0 0 0 0 0 0 0 0 0 0 127 0"/>
<feOffset dy="4"/>
<feGaussianBlur stdDeviation="2"/>
<feColorMatrix type="matrix" values="0 0 0 0 0 0 0 0 0 0 0 0 0 0 0 0 0 0 0.25 0"/>
<feBlend mode="normal" in2="BackgroundImageFix" result="effect1_dropShadow"/>
<feBlend mode="normal" in="SourceGraphic" in2="effect1_dropShadow" result="shape"/>
</filter>
<linearGradient id="paint0_linear" x1="4.68269" y1="1.85403" x2="109.935" y2="106.243" gradientUnits="userSpaceOnUse">
<stop stop-color="#DE6262"/>
<stop offset="1" stop-color="#FFB88C"/>
</linearGradient>
<linearGradient id="paint1_linear" x1="-1.87037" y1="8.46066" x2="103.382" y2="112.85" gradientUnits="userSpaceOnUse">
<stop stop-color="#DE6262"/>
<stop offset="1" stop-color="#FFB88C"/>
</linearGradient>
<linearGradient id="paint2_linear" x1="0.569062" y1="6.00159" x2="105.821" y2="110.391" gradientUnits="userSpaceOnUse">
<stop stop-color="#DE6262"/>
<stop offset="1" stop-color="#FFB88C"/>
</linearGradient>
</defs>
</svg>
