<svg width="103" height="104" viewBox="0 0 103 104" fill="none" xmlns="http://www.w3.org/2000/svg">
<g filter="url(#filter0_d)">
<path d="M51.5 2.58398C76.675 2.58398 97.2188 23.1277 97.2188 48.3027C97.2188 73.4777 76.675 94.0215 51.5 94.0215C26.325 94.0215 5.78125 73.4777 5.78125 48.3027C5.78125 23.1277 26.325 2.58398 51.5 2.58398ZM51.5 0.802734C25.2563 0.802734 4 22.059 4 48.3027C4 74.5465 25.2563 95.8027 51.5 95.8027C77.7438 95.8027 99 74.5465 99 48.3027C99 22.059 77.7438 0.802734 51.5 0.802734Z" fill="url(#paint0_linear)"/>
<path d="M93.181 44.6213H90.806V41.8901C91.8748 42.3651 93.0623 42.7214 94.2498 43.0776C94.3685 43.0776 94.3685 43.0776 94.4873 43.0776C94.8435 43.0776 95.3185 42.8401 95.3185 42.3651C95.4373 41.8901 95.081 41.4151 94.606 41.2964C85.6998 39.2776 77.6248 28.4713 77.506 28.3526C77.3873 28.1151 77.031 27.9963 76.7935 27.9963C76.4373 27.9963 76.1998 28.2338 76.081 28.4713C75.9623 28.5901 69.6685 39.0401 51.6185 39.0401C33.5685 39.0401 27.156 28.5901 27.156 28.4713C27.0373 28.2338 26.681 27.9963 26.4435 27.9963C26.0873 27.9963 25.8498 28.1151 25.731 28.3526C25.6123 28.4713 17.5373 39.2776 8.63102 41.2964C8.15602 41.4151 7.79977 41.8901 7.91852 42.3651C8.03727 42.7213 8.39351 43.0776 8.74976 43.0776C8.86851 43.0776 8.86852 43.0776 8.98727 43.0776C10.1748 42.8401 11.481 42.3651 12.5498 41.7713V44.6213H9.81852C8.39352 44.6213 7.32477 45.6901 7.32477 47.1151C7.32477 48.5401 8.39352 49.6089 9.81852 49.6089H25.3748V60.6526H21.6935C20.506 60.6526 19.556 61.6026 19.556 62.7901V64.9276C18.9623 64.4526 18.2498 64.0963 17.181 64.0963C14.806 64.0963 11.5998 66.2338 11.2435 66.4713C10.8873 66.7088 10.7685 67.3026 11.006 67.6588C11.2435 68.0151 11.8373 68.1338 12.1935 67.8963C13.0248 67.3026 15.5185 65.8776 17.0623 65.8776C17.7748 65.8776 18.131 66.2338 18.7248 66.7088C19.4373 67.3026 20.3873 68.1338 22.1685 68.1338C24.0685 68.1338 25.4935 67.3026 26.5623 66.5901C27.0373 66.2338 27.631 65.8776 27.9873 65.8776C28.3435 65.8776 29.056 66.3526 29.6498 66.7088C30.5998 67.3026 31.7873 68.0151 32.9748 68.0151C34.1623 68.0151 35.4685 67.3026 36.7748 66.7088C37.606 66.3526 38.556 65.7588 39.031 65.7588C39.3873 65.7588 40.0998 66.2338 40.6935 66.7088C41.6435 67.3026 42.5935 68.0151 43.6623 68.0151C44.6123 68.0151 45.681 67.4213 46.631 66.8276C47.4623 66.3526 48.4123 65.7588 49.006 65.7588C49.5998 65.7588 50.431 66.2338 51.1435 66.7088C52.0935 67.3026 53.1623 67.8963 54.3498 67.8963C55.5373 67.8963 56.7248 67.3026 57.7935 66.5901C58.6248 66.1151 59.456 65.6401 60.0498 65.6401C60.6435 65.6401 61.356 66.1151 62.0685 66.5901C63.0185 67.1838 63.9685 67.7776 65.0373 67.7776C65.9873 67.7776 66.8185 67.1838 67.6498 66.7088C68.481 66.1151 69.3123 65.6401 70.381 65.6401C71.331 65.6401 71.806 65.9963 72.5185 66.5901C73.231 67.1838 74.181 67.8963 75.606 67.8963C77.1497 67.8963 78.3373 67.1838 79.406 66.5901C80.2373 66.1151 80.9498 65.7588 81.5435 65.7588C82.256 65.7588 83.0872 66.3526 83.9185 66.8276C84.7497 67.4213 85.581 67.8963 86.4123 67.8963C87.2435 67.8963 87.956 67.4213 88.906 66.8276C89.856 66.2338 90.9248 65.6401 91.756 65.6401C92.231 65.6401 92.706 65.2838 92.706 64.6901C92.706 64.0963 92.3498 63.7401 91.756 63.7401C90.4498 63.7401 89.1435 64.4526 87.956 65.1651C87.3623 65.5213 86.6497 65.9963 86.2935 65.9963C86.056 65.9963 85.3435 65.5213 84.8685 65.1651C84.2748 64.8088 83.681 64.3338 82.9685 64.0963V62.5526C82.9685 61.3651 82.0185 60.5338 80.831 60.5338H77.1498V49.4901H92.706C94.131 49.4901 95.1998 48.4213 95.1998 46.9963C95.1998 45.5713 94.606 44.6213 93.181 44.6213ZM90.2123 44.6213H87.7185V40.3463C88.5498 40.8213 89.381 41.2963 90.2123 41.6526V44.6213ZM84.3935 46.4026H87.1248V47.8276H84.3935V46.4026ZM83.7998 47.7088H81.1873V46.2838H83.7998V47.7088ZM84.3935 44.6213V37.9713C85.2248 38.6838 86.1748 39.2776 87.1248 39.9901V44.6213H84.3935ZM87.7185 46.4026H90.2123V47.8276H87.7185V46.4026ZM83.7998 37.4963V44.6213H81.1873V35.2401C82.0185 35.9526 82.8498 36.6651 83.7998 37.4963ZM80.5935 34.5276V44.5026H77.6248V31.3213C78.3373 32.2713 79.406 33.4588 80.5935 34.5276ZM75.8435 31.5588V44.6213H73.231V34.0526C74.2998 33.1026 75.2498 32.2713 75.8435 31.5588ZM27.156 47.7088V46.2838H29.056V47.7088H27.156ZM29.6498 46.4026H32.381V47.8276H29.6498V46.4026ZM51.4998 40.8213C51.856 40.8213 52.0935 40.8213 52.331 40.8213C52.331 40.8213 52.331 40.8213 52.331 40.9401V44.6213H49.5998V40.8213C50.1935 40.8213 50.7873 40.8213 51.4998 40.8213ZM68.956 44.6213H66.2248V38.2088C67.1748 37.8526 68.1248 37.3776 68.956 36.9026V44.6213ZM69.5498 36.5464C70.7373 35.8339 71.6873 35.2401 72.6373 34.5276V44.6213H69.5498V36.5464ZM65.631 44.6213H62.8998V39.2776C63.8498 39.0401 64.7998 38.6839 65.631 38.3276V44.6213ZM62.306 44.6213H59.5748V40.1089C60.5248 39.8714 61.4748 39.7526 62.306 39.5151V44.6213ZM58.981 44.6213H56.2498V40.5838C57.1998 40.4651 58.1498 40.3463 58.981 40.2276V44.6213ZM55.656 44.6213H52.9248V40.9401C52.9248 40.9401 52.9248 40.9401 52.9248 40.8213C53.8748 40.8213 54.8248 40.7026 55.656 40.7026V44.6213ZM49.006 44.6213H46.2748V40.5838C47.106 40.7026 48.056 40.7026 49.006 40.8213V44.6213ZM45.681 44.6213H42.9498V39.9901C43.781 40.1088 44.731 40.3463 45.681 40.4651V44.6213ZM42.356 44.6213H39.6248V39.1588C40.456 39.3963 41.406 39.6338 42.356 39.8713V44.6213ZM39.031 44.6213H36.2998V37.9713C37.131 38.3276 38.081 38.6838 39.031 39.0401V44.6213ZM35.706 44.6213H32.9748V36.3088C33.806 36.7838 34.756 37.2589 35.706 37.7339V44.6213ZM32.381 44.6213H29.6498V34.0526C30.481 34.6463 31.3123 35.3589 32.381 35.9526V44.6213ZM32.9748 46.4026H35.706V47.8276H32.9748V46.4026ZM36.2998 46.4026H39.031V47.8276H36.2998V46.4026ZM39.6248 46.4026H42.356V47.8276H39.6248V46.4026ZM42.9498 46.4026H45.681V47.8276H42.9498V46.4026ZM46.2748 46.4026H49.006V47.8276H46.2748V46.4026ZM49.5998 46.4026H52.331V47.8276H49.5998V46.4026ZM52.9248 46.4026H55.656V47.8276H52.9248V46.4026ZM56.2498 46.4026H58.981V47.8276H56.2498V46.4026ZM59.5748 46.4026H62.306V47.8276H59.5748V46.4026ZM62.8998 46.4026H65.631V47.8276H62.8998V46.4026ZM66.2248 46.4026H68.956V47.8276H66.2248V46.4026ZM69.5498 46.4026H72.6373V47.8276H69.5498V46.4026ZM73.231 46.4026H75.8435V47.8276H73.231V46.4026ZM29.056 33.4588V44.6213H27.156V31.5588C27.631 32.1526 28.3435 32.7463 29.056 33.4588ZM22.9998 33.9338C23.9498 32.9838 24.6623 32.1526 25.3748 31.4401V44.6213H22.9998V33.9338ZM22.406 34.5276V44.5026H19.6748V37.0213C20.6248 36.1901 21.5748 35.3588 22.406 34.5276ZM16.3498 46.4026H19.081V47.8276H16.3498V46.4026ZM15.756 47.7088H13.0248V46.2838H15.756V47.7088ZM16.3498 44.6213V39.6338C17.2998 39.0401 18.2498 38.3276 19.081 37.6151V44.6213H16.3498ZM19.6748 46.4026H22.406V47.8276H19.6748V46.4026ZM13.0248 41.5338C13.9748 41.0588 14.9248 40.5838 15.756 39.9901V44.6213H13.0248V41.5338ZM9.10602 47.1151C9.10602 46.7588 9.46227 46.4026 9.81852 46.4026H12.431V47.8276H9.81852C9.46227 47.7089 9.10602 47.4713 9.10602 47.1151ZM22.9998 47.7088V46.2838H25.3748V47.7088H22.9998ZM28.2248 63.8588C27.5123 63.8588 26.7998 64.3338 25.9685 64.8088C25.0185 65.4026 23.831 66.1151 22.406 66.1151C22.0498 66.1151 21.6935 65.9963 21.456 65.9963V62.7901C21.456 62.6713 21.5748 62.4338 21.8123 62.4338H30.8373C30.956 62.4338 31.1935 62.5526 31.1935 62.7901V65.2838C31.0748 65.2838 31.0748 65.1651 30.956 65.1651C29.8873 64.4526 29.056 63.8588 28.2248 63.8588ZM81.5435 62.6713V63.8588C80.5935 63.9776 79.7623 64.4526 78.931 64.9276C77.981 65.5213 77.031 65.9963 75.9623 65.9963C75.131 65.9963 74.5373 65.6401 73.9435 65.0463C73.3498 64.6901 72.756 64.2151 71.9248 63.9776V62.6713C71.9248 62.5526 72.0435 62.4338 72.1623 62.4338H81.1873C81.4248 62.4338 81.5435 62.5526 81.5435 62.6713ZM75.8435 60.6526H72.1623C70.9748 60.6526 70.1435 61.6026 70.1435 62.6713V63.8588C68.8373 63.9776 67.8873 64.6901 67.056 65.1651C66.4623 65.6401 65.8685 65.9963 65.3935 65.9963C64.7998 65.9963 64.0873 65.5213 63.3748 65.0463C62.4248 64.4526 61.4748 63.8588 60.406 63.8588C59.456 63.8588 58.3873 64.4526 57.3185 65.0463C56.3685 65.5213 55.4185 66.1151 54.706 66.1151C53.9935 66.1151 53.281 65.6401 52.4498 65.1651C51.4998 64.5713 50.431 63.9776 49.3623 63.9776C48.1748 63.9776 47.106 64.5713 46.0373 65.2838C45.3248 65.7588 44.4935 66.2338 44.0185 66.2338C43.5435 66.2338 42.7123 65.7588 41.9998 65.2838C41.1685 64.6901 40.2185 64.0963 39.2685 64.0963C38.4373 64.0963 37.3685 64.5713 36.2998 65.1651C35.231 65.6401 34.0435 66.2338 33.331 66.2338C33.2123 66.2338 33.0935 66.2338 32.9748 66.1151V62.7901C32.9748 61.6026 32.0248 60.6526 30.8373 60.6526H27.156V49.6089H75.8435V60.6526ZM77.6248 46.4026H80.5935V47.8276H77.6248V46.4026ZM93.181 47.7088H90.806V46.2838H93.181C93.5373 46.2838 93.8935 46.6401 93.8935 46.9963C93.8935 47.3526 93.5373 47.7088 93.181 47.7088Z" fill="url(#paint1_linear)"/>
</g>
<defs>
<filter id="filter0_d" x="0" y="0.802734" width="103" height="103" filterUnits="userSpaceOnUse" color-interpolation-filters="sRGB">
<feFlood flood-opacity="0" result="BackgroundImageFix"/>
<feColorMatrix in="SourceAlpha" type="matrix" values="0 0 0 0 0 0 0 0 0 0 0 0 0 0 0 0 0 0 127 0"/>
<feOffset dy="4"/>
<feGaussianBlur stdDeviation="2"/>
<feColorMatrix type="matrix" values="0 0 0 0 0 0 0 0 0 0 0 0 0 0 0 0 0 0 0.25 0"/>
<feBlend mode="normal" in2="BackgroundImageFix" result="effect1_dropShadow"/>
<feBlend mode="normal" in="SourceGraphic" in2="effect1_dropShadow" result="shape"/>
</filter>
<linearGradient id="paint0_linear" x1="12.4301" y1="7.16512" x2="61.6051" y2="58.9282" gradientUnits="userSpaceOnUse">
<stop stop-color="#A3BDED"/>
<stop offset="1" stop-color="#6991C7"/>
</linearGradient>
<linearGradient id="paint1_linear" x1="10.1247" y1="9.35496" x2="59.2996" y2="61.1182" gradientUnits="userSpaceOnUse">
<stop stop-color="#A3BDED"/>
<stop offset="1" stop-color="#6991C7"/>
</linearGradient>
</defs>
</svg>
