<svg width="103" height="104" viewBox="0 0 103 104" fill="none" xmlns="http://www.w3.org/2000/svg">
<g filter="url(#filter0_d)">
<path d="M27.157 44.0278C27.2758 44.0278 27.3945 43.9091 27.3945 43.7903V40.9403C27.3945 40.8216 27.2758 40.7028 27.157 40.7028C27.0383 40.7028 26.9196 40.8216 26.9196 40.9403V43.7903C26.9196 43.9091 27.0383 44.0278 27.157 44.0278Z" fill="url(#paint0_linear)"/>
<path d="M29.8881 45.2153C30.0068 45.2153 30.1256 45.0966 30.1256 44.9778V42.1278C30.1256 42.0091 30.0068 41.8903 29.8881 41.8903C29.7693 41.8903 29.6506 42.0091 29.6506 42.1278V44.9778C29.6506 45.0966 29.7693 45.2153 29.8881 45.2153Z" fill="url(#paint1_linear)"/>
<path d="M84.6312 45.6902C84.75 45.6902 84.8687 45.5715 84.8687 45.4527V43.1965C84.8687 43.0777 84.75 42.959 84.6312 42.959C84.5125 42.959 84.3937 43.0777 84.3937 43.1965V45.4527C84.2749 45.5715 84.5125 45.6902 84.6312 45.6902Z" fill="url(#paint2_linear)"/>
<path d="M81.7821 45.6902C81.9008 45.6902 82.0195 45.5715 82.0195 45.4527V43.1965C82.0195 43.0777 81.9008 42.959 81.7821 42.959C81.6633 42.959 81.5446 43.0777 81.5446 43.1965V45.4527C81.5446 45.5715 81.6633 45.6902 81.7821 45.6902Z" fill="url(#paint3_linear)"/>
<path d="M78.3379 45.6902C78.4566 45.6902 78.5754 45.5715 78.5754 45.4527V43.1965C78.5754 43.0777 78.4566 42.959 78.3379 42.959C78.2191 42.959 78.1003 43.0777 78.1003 43.1965V45.4527C78.1003 45.5715 78.2191 45.6902 78.3379 45.6902Z" fill="url(#paint4_linear)"/>
<path d="M75.0133 45.6902C75.132 45.6902 75.2508 45.5715 75.2508 45.4527V43.1965C75.2508 43.0777 75.132 42.959 75.0133 42.959C74.8945 42.959 74.7758 43.0777 74.7758 43.1965V45.4527C74.657 45.5715 74.7758 45.6902 75.0133 45.6902Z" fill="url(#paint5_linear)"/>
<path d="M71.5691 45.6902C71.6878 45.6902 71.8066 45.5715 71.8066 45.4527V43.1965C71.8066 43.0777 71.6878 42.959 71.5691 42.959C71.4503 42.959 71.3316 43.0777 71.3316 43.1965V45.4527C71.2128 45.5715 71.3316 45.6902 71.5691 45.6902Z" fill="url(#paint6_linear)"/>
<path d="M89.9754 54.9527H84.8692V53.6465H85.7005C86.5317 53.6465 87.1255 53.0527 87.1255 52.2215V38.209C87.1255 37.3777 86.5317 36.784 85.7005 36.784H39.6255L23.0005 35.2402C22.6442 35.2402 22.1692 35.359 21.9317 35.5965C21.5755 35.834 21.4567 36.309 21.4567 36.6652V48.184C21.4567 49.0152 22.0505 49.609 22.8817 49.609H23.3567V53.2902H18.3692H12.5505C12.0755 53.2902 11.6005 53.6465 11.6005 54.2402C11.6005 54.834 11.9567 55.1902 12.5505 55.1902H16.9442V59.9402C16.9442 60.7715 17.538 61.3652 18.3692 61.3652H89.9754C90.8067 61.3652 91.4005 60.7715 91.4005 59.9402V56.4965C91.4005 55.6652 90.6879 54.9527 89.9754 54.9527ZM23.1192 47.9465V37.0215L24.9005 37.1402V40.7027C24.9005 40.8215 25.0192 40.9402 25.138 40.9402C25.2567 40.9402 25.3755 40.8215 25.3755 40.7027V37.259L31.6692 37.8527V40.7027C31.6692 40.8215 31.788 40.9402 31.9068 40.9402C32.0255 40.9402 32.1442 40.8215 32.1442 40.7027V37.9715L39.1505 38.5652H67.888V38.684V40.3465C67.888 40.4652 68.0067 40.584 68.1255 40.584C68.2442 40.584 68.3629 40.4652 68.3629 40.3465V38.684V38.5652H70.0255V38.684V40.3465C70.0255 40.4652 70.1442 40.584 70.263 40.584C70.3817 40.584 70.5005 40.4652 70.5005 40.3465V38.684V38.5652H72.1629V38.684V40.3465C72.1629 40.4652 72.2817 40.584 72.4005 40.584C72.5192 40.584 72.638 40.4652 72.638 40.3465V38.684V38.5652H74.3004V38.684V40.3465C74.3004 40.4652 74.4192 40.584 74.5379 40.584C74.6567 40.584 74.7755 40.4652 74.7755 40.3465V38.684V38.5652H76.438V38.684V40.3465C76.438 40.4652 76.5567 40.584 76.6754 40.584C76.7942 40.584 76.9129 40.4652 76.9129 40.3465V38.684V38.5652H78.5755V38.684V40.3465C78.5755 40.4652 78.6942 40.584 78.813 40.584C78.9317 40.584 79.0504 40.4652 79.0504 40.3465V38.684V38.5652H80.713V38.684V40.3465C80.713 40.4652 80.8317 40.584 80.9505 40.584C81.0692 40.584 81.188 40.4652 81.188 40.3465V38.684V38.5652H82.8504V38.684V40.3465C82.8504 40.4652 82.9692 40.584 83.088 40.584C83.2067 40.584 83.3255 40.4652 83.3255 40.3465V38.684V38.5652H84.8692V51.8652H83.2067V48.3027C83.2067 48.184 83.088 48.0652 82.9692 48.0652C82.8505 48.0652 82.7317 48.184 82.7317 48.3027V51.8652H82.3755H80.1192V48.3027C80.1192 48.184 80.0004 48.0652 79.8817 48.0652C79.7629 48.0652 79.6442 48.184 79.6442 48.3027V51.8652H77.1505V48.3027C77.1505 48.184 77.0317 48.0652 76.9129 48.0652C76.7942 48.0652 76.6754 48.184 76.6754 48.3027V51.8652H74.7755L74.063 51.509V48.4215C74.063 48.3027 73.9442 48.184 73.8255 48.184C73.7067 48.184 73.588 48.3027 73.588 48.4215V51.2715L70.9754 49.8465V48.5402C70.9754 48.4215 70.8567 48.3027 70.7379 48.3027C70.6192 48.3027 70.5005 48.4215 70.5005 48.5402V49.609L68.6004 48.5402C68.1254 48.3027 67.6504 48.184 67.1754 48.184H66.2254V45.6902C66.2254 44.859 65.6317 44.2652 64.8004 44.2652H61.8317V44.1465V41.7715C61.8317 41.6527 61.713 41.534 61.5942 41.534C61.4755 41.534 61.3567 41.6527 61.3567 41.7715V43.909V44.0277H55.8942V43.909V41.7715C55.8942 41.6527 55.7755 41.534 55.6567 41.534C55.538 41.534 55.4192 41.6527 55.4192 41.7715V43.909V44.0277H52.9254V41.8902C52.9254 41.059 52.3317 40.4652 51.5005 40.4652H38.2005C37.3692 40.4652 36.7755 41.059 36.7755 41.8902V44.2652C36.7755 45.0965 37.3692 45.6902 38.2005 45.6902H42.9505V47.8277H34.638V45.4527C34.638 45.334 34.5192 45.2152 34.4005 45.2152C34.2817 45.2152 34.163 45.334 34.163 45.4527V47.8277H24.9005V45.4527C24.9005 45.334 24.7817 45.2152 24.663 45.2152C24.5442 45.2152 24.4255 45.334 24.4255 45.4527V47.8277H23.1192V47.9465ZM50.6692 44.0277H42.713H42.5942H38.0817V42.2465H50.6692V44.0277ZM44.2567 45.809H52.213H52.3317H64.088V47.9465H44.2567V45.809ZM89.6192 59.584H18.6067V55.1902H23.5942C24.4255 55.1902 25.0192 54.5965 25.0192 53.7652V49.7277H66.7005C66.938 49.7277 67.0567 49.7277 67.2942 49.8465L73.8255 53.409C74.063 53.5277 74.3004 53.6465 74.5379 53.6465H82.9692V55.309C82.9692 56.1402 83.5629 56.734 84.3942 56.734H89.5005V59.584H89.6192Z" fill="url(#paint7_linear)"/>
<path d="M51.5 2.58398C76.675 2.58398 97.2188 23.1277 97.2188 48.3027C97.2188 73.4777 76.675 94.0214 51.5 94.0214C26.325 94.0214 5.78125 73.4777 5.78125 48.3027C5.78125 23.1277 26.2063 2.58398 51.5 2.58398ZM51.5 0.802734C25.2563 0.802734 4 22.059 4 48.3027C4 74.5465 25.2563 95.8027 51.5 95.8027C77.7438 95.8027 99 74.5465 99 48.3027C99 22.059 77.625 0.802734 51.5 0.802734Z" fill="url(#paint8_linear)"/>
</g>
<defs>
<filter id="filter0_d" x="0" y="0.802734" width="103" height="103" filterUnits="userSpaceOnUse" color-interpolation-filters="sRGB">
<feFlood flood-opacity="0" result="BackgroundImageFix"/>
<feColorMatrix in="SourceAlpha" type="matrix" values="0 0 0 0 0 0 0 0 0 0 0 0 0 0 0 0 0 0 127 0"/>
<feOffset dy="4"/>
<feGaussianBlur stdDeviation="2"/>
<feColorMatrix type="matrix" values="0 0 0 0 0 0 0 0 0 0 0 0 0 0 0 0 0 0 0.25 0"/>
<feBlend mode="normal" in2="BackgroundImageFix" result="effect1_dropShadow"/>
<feBlend mode="normal" in="SourceGraphic" in2="effect1_dropShadow" result="shape"/>
</filter>
<linearGradient id="paint0_linear" x1="-8.55693" y1="2.09643" x2="87.5282" y2="110.151" gradientUnits="userSpaceOnUse">
<stop stop-color="#00CDAC"/>
<stop offset="1" stop-color="#64B3F4"/>
</linearGradient>
<linearGradient id="paint1_linear" x1="-7.64085" y1="1.2817" x2="88.4443" y2="109.336" gradientUnits="userSpaceOnUse">
<stop stop-color="#00CDAC"/>
<stop offset="1" stop-color="#64B3F4"/>
</linearGradient>
<linearGradient id="paint2_linear" x1="22.5045" y1="-25.5286" x2="118.589" y2="82.5323" gradientUnits="userSpaceOnUse">
<stop stop-color="#00CDAC"/>
<stop offset="1" stop-color="#64B3F4"/>
</linearGradient>
<linearGradient id="paint3_linear" x1="20.9435" y1="-24.1319" x2="117.03" y2="83.9151" gradientUnits="userSpaceOnUse">
<stop stop-color="#00CDAC"/>
<stop offset="1" stop-color="#64B3F4"/>
</linearGradient>
<linearGradient id="paint4_linear" x1="19.0209" y1="-22.4308" x2="115.106" y2="85.6308" gradientUnits="userSpaceOnUse">
<stop stop-color="#00CDAC"/>
<stop offset="1" stop-color="#64B3F4"/>
</linearGradient>
<linearGradient id="paint5_linear" x1="17.1089" y1="-20.7297" x2="113.194" y2="87.3309" gradientUnits="userSpaceOnUse">
<stop stop-color="#00CDAC"/>
<stop offset="1" stop-color="#64B3F4"/>
</linearGradient>
<linearGradient id="paint6_linear" x1="15.1956" y1="-19.0286" x2="111.281" y2="89.032" gradientUnits="userSpaceOnUse">
<stop stop-color="#00CDAC"/>
<stop offset="1" stop-color="#64B3F4"/>
</linearGradient>
<linearGradient id="paint7_linear" x1="1.88387" y1="-7.18877" x2="97.9692" y2="100.867" gradientUnits="userSpaceOnUse">
<stop stop-color="#00CDAC"/>
<stop offset="1" stop-color="#64B3F4"/>
</linearGradient>
<linearGradient id="paint8_linear" x1="2.01331" y1="-7.30432" x2="98.0988" y2="100.751" gradientUnits="userSpaceOnUse">
<stop stop-color="#00CDAC"/>
<stop offset="1" stop-color="#64B3F4"/>
</linearGradient>
</defs>
</svg>
