<svg width="103" height="104" viewBox="0 0 103 104" fill="none" xmlns="http://www.w3.org/2000/svg">
<g filter="url(#filter0_d)">
<path d="M74.1813 57.2086C74.1813 57.2086 74.0625 57.2086 74.1813 57.2086L37.2501 22.4148C37.2501 22.4148 37.2501 22.4148 37.2501 22.2961H37.3688L72.9938 55.7836L39.0313 19.2086V19.0898H39.15L74.1813 57.2086C74.1813 57.0898 74.1813 57.0898 74.1813 57.2086Z" fill="url(#paint0_linear)"/>
<path d="M74.182 57.2086C74.182 57.2086 74.0633 57.2086 74.182 57.2086L40.932 16.1211V16.0023H41.0507L73.3507 55.9023L43.6632 12.6773V12.5586H43.782L74.182 57.2086C74.182 57.0898 74.182 57.2086 74.182 57.2086Z" fill="url(#paint1_linear)"/>
<path d="M73.707 56.6148L46.2758 10.3023V10.1836H46.3945L72.9945 55.0711L49.957 8.52109V8.40234H50.0758L73.707 56.6148C73.8257 56.4961 73.8257 56.6148 73.707 56.6148Z" fill="url(#paint2_linear)"/>
<path d="M73.7065 56.6146L35.1128 26.6896C35.1128 26.6896 35.1128 26.6896 35.1128 26.5709C35.1128 26.5709 35.1128 26.5709 35.2316 26.5709L73.7065 56.6146C73.8253 56.4959 73.8253 56.4959 73.7065 56.6146C73.8253 56.6146 73.7065 56.6146 73.7065 56.6146Z" fill="url(#paint3_linear)"/>
<path d="M51.5 2.58398C76.675 2.58398 97.2188 23.1277 97.2188 48.3027C97.2188 73.4777 76.675 94.0215 51.5 94.0215C26.325 94.0215 5.78125 73.4777 5.78125 48.3027C5.78125 23.1277 26.2063 2.58398 51.5 2.58398ZM51.5 0.802734C25.2563 0.802734 4 22.059 4 48.3027C4 74.5465 25.2563 95.8027 51.5 95.8027C77.7438 95.8027 99 74.5465 99 48.3027C99 22.059 77.625 0.802734 51.5 0.802734Z" fill="url(#paint4_linear)"/>
<path d="M18.8435 81.1957C18.7247 81.1957 18.7247 81.1957 18.6059 81.1957C18.1309 81.077 17.8934 80.602 18.0122 80.127C18.7247 77.752 34.7559 23.3645 49.4809 18.852C51.7372 18.1395 54.1122 18.4957 56.3684 19.802C67.6497 26.2145 75.0122 55.427 75.3684 56.6145C75.4872 57.0895 75.2497 57.5645 74.7747 57.6832C74.2997 57.802 73.8246 57.5645 73.7059 57.0895C73.5872 56.852 66.2247 27.402 55.5372 21.3457C53.6372 20.277 51.8559 20.0395 50.0747 20.6332C44.4934 22.2957 37.4872 33.2207 29.7684 52.102C23.9497 66.4707 19.7934 80.602 19.7934 80.7207C19.5559 80.9582 19.1997 81.1957 18.8435 81.1957Z" fill="url(#paint5_linear)"/>
<path d="M85.1057 81.0773C84.6307 81.0773 84.2744 80.7211 84.2744 80.2461C82.8494 55.1898 65.5119 8.52109 51.4994 8.52109C45.5619 8.52109 33.8057 19.0898 32.0244 58.9898C32.0244 59.4648 31.5494 59.9398 31.0744 59.8211C30.5994 59.8211 30.2432 59.3461 30.2432 58.8711C32.0244 17.6648 44.4932 6.62109 51.4994 6.62109C67.5307 6.62109 84.7494 56.4961 86.0557 80.0086C86.0557 80.6023 85.6994 81.0773 85.1057 81.0773Z" fill="url(#paint6_linear)"/>
<path d="M22.5239 70.2708C22.4051 70.1521 22.4051 70.1521 22.5239 70.2708L64.7988 20.0396C64.7988 20.0396 64.7989 20.0396 64.9176 20.0396C65.0364 20.0396 64.9176 20.0396 64.9176 20.1583L23.7114 68.8458L67.1738 23.8396H67.2926V23.9583L22.5239 70.2708Z" fill="url(#paint7_linear)"/>
<path d="M22.5239 70.271C22.4051 70.1523 22.4051 70.1523 22.5239 70.271L58.3864 11.9648C58.3864 11.9648 58.3864 11.9648 58.5051 11.9648C58.5051 11.9648 58.5051 11.9648 58.5051 12.0835L23.3551 69.0835L62.0676 16.2398C62.0676 16.2398 62.0677 16.2398 62.1864 16.2398C62.1864 16.2398 62.1864 16.2398 62.1864 16.3585L22.5239 70.271Z" fill="url(#paint8_linear)"/>
<path d="M22.9993 69.4396C22.8806 69.4396 22.8806 69.4396 22.9993 69.4396L49.5993 8.16455C49.5993 8.16455 49.5993 8.16455 49.7181 8.16455C49.7181 8.16455 49.7181 8.16456 49.7181 8.28331L23.7118 68.0146L54.943 9.11455C54.943 9.11455 54.9431 9.11455 55.0618 9.11455C55.1806 9.11455 55.0618 9.11455 55.0618 9.2333L22.9993 69.4396Z" fill="url(#paint9_linear)"/>
<path d="M22.9993 69.4397C22.8806 69.4397 22.8806 69.3209 22.9993 69.4397L70.0243 29.0647H70.143V29.1834L22.9993 69.4397Z" fill="url(#paint10_linear)"/>
<path d="M60.0499 42.4843H56.25C56.25 42.3655 56.25 42.128 56.25 42.0093L52.9249 16.2405C52.8062 15.4093 52.0937 14.6968 51.1437 14.6968C50.1937 14.6968 49.4812 15.4093 49.3624 16.2405L46.0375 42.0093C46.0375 42.2468 46.0375 42.3655 46.0375 42.4843H42.7125C40.3375 42.4843 38.4375 44.3843 38.4375 46.7593V47.1155C38.4375 49.4905 40.3375 51.3905 42.7125 51.3905H45.4437C45.4437 51.3905 45.4437 51.3905 45.4437 51.5093L41.8812 79.8905C41.7625 80.3655 42 80.9593 42.3562 81.3155C42.7125 81.6718 43.1875 81.9093 43.6625 81.9093H58.7437C59.2187 81.9093 59.6937 81.6718 60.0499 81.3155C60.4062 80.9593 60.525 80.3655 60.525 79.8905L56.9625 51.5093C56.9625 51.5093 56.9625 51.5093 56.9625 51.3905H60.0499C62.4249 51.3905 64.325 49.4905 64.325 47.1155V46.7593C64.325 44.3843 62.4249 42.4843 60.0499 42.4843ZM51.7374 27.403V37.378H52.2125V42.2468H50.3125V37.378H50.7875V27.403H51.1437V23.4843H51.3812V27.403H51.7374ZM51.2625 16.3593L54.5875 42.128H52.45V37.2593C52.45 37.1405 52.3312 37.0218 52.2125 37.0218H51.975V27.2843C51.975 27.1655 51.8562 27.0468 51.7374 27.0468H51.6187V23.3655C51.6187 23.2468 51.5 23.128 51.3812 23.128H51.1437C51.0249 23.128 50.9062 23.2468 50.9062 23.3655V27.0468H50.7875C50.6687 27.0468 50.5499 27.1655 50.5499 27.2843V37.0218H50.3125C50.1938 37.0218 50.075 37.1405 50.075 37.2593V42.128H47.9375L51.2625 16.3593ZM50.075 69.678V66.1155H49.8375V63.2655H49.4812V59.9405H49.0062V56.0218H48.1749V51.7468H50.5499V72.8843H50.4312V69.678H50.075ZM50.7875 51.7468H51.7374V76.4468H50.7875V51.7468ZM51.975 51.7468H54.35V56.0218H53.5187V59.9405H53.0437V63.2655H52.6875V66.1155H52.45V69.678H52.0938V72.8843H51.975V51.7468ZM58.8624 80.128H43.7812L47.3438 51.7468H47.9375V56.0218C47.9375 56.1405 48.0562 56.2593 48.1749 56.2593H48.7687V59.9405C48.7687 60.0593 48.8875 60.178 49.0062 60.178H49.2437V63.2655C49.2437 63.3843 49.3625 63.503 49.4812 63.503H49.6V66.1155C49.6 66.2343 49.7187 66.353 49.8375 66.353V69.678C49.8375 69.7968 49.9562 69.9155 50.075 69.9155H50.1937V72.8843C50.1937 73.003 50.3125 73.1218 50.4312 73.1218H50.5499V76.4468C50.5499 76.5655 50.6687 76.6843 50.7875 76.6843H51.7374C51.8562 76.6843 51.975 76.5655 51.975 76.4468V73.1218H52.0938C52.2125 73.1218 52.3312 73.003 52.3312 72.8843V69.9155H52.45C52.5687 69.9155 52.6875 69.7968 52.6875 69.678V66.353C52.8062 66.353 52.9249 66.2343 52.9249 66.1155V63.503H53.0437C53.1625 63.503 53.2812 63.3843 53.2812 63.2655V60.178H53.5187C53.6374 60.178 53.7562 60.0593 53.7562 59.9405V56.2593H54.35C54.4687 56.2593 54.5875 56.1405 54.5875 56.0218V51.7468H55.1812L58.8624 80.128ZM62.5437 47.1155C62.5437 48.5405 61.3562 49.6093 60.0499 49.6093H42.95C41.525 49.6093 40.4562 48.4218 40.4562 47.1155V46.7593C40.4562 45.3343 41.6437 44.2655 42.95 44.2655H60.0499C61.4749 44.2655 62.5437 45.453 62.5437 46.7593V47.1155Z" fill="url(#paint11_linear)"/>
<path d="M49.4819 45.9277C48.8881 45.9277 48.4131 46.4027 48.4131 46.9965C48.4131 47.5902 48.8881 48.0652 49.4819 48.0652C50.0756 48.0652 50.5506 47.5902 50.5506 46.9965C50.5506 46.4027 49.9569 45.9277 49.4819 45.9277ZM49.4819 47.3527C49.2444 47.3527 49.0068 47.1152 49.0068 46.8777C49.0068 46.6402 49.2444 46.4027 49.4819 46.4027C49.7194 46.4027 49.9568 46.6402 49.9568 46.8777C49.9568 47.1152 49.7194 47.3527 49.4819 47.3527Z" fill="url(#paint12_linear)"/>
<path d="M53.4003 45.9277C52.8066 45.9277 52.3315 46.4027 52.3315 46.9965C52.3315 47.5902 52.8066 48.0652 53.4003 48.0652C53.9941 48.0652 54.4691 47.5902 54.4691 46.9965C54.4691 46.4027 53.9941 45.9277 53.4003 45.9277ZM53.4003 47.3527C53.1628 47.3527 52.9253 47.1152 52.9253 46.8777C52.9253 46.6402 53.1628 46.4027 53.4003 46.4027C53.6378 46.4027 53.8754 46.6402 53.8754 46.8777C53.8754 47.1152 53.6378 47.3527 53.4003 47.3527Z" fill="url(#paint13_linear)"/>
</g>
<defs>
<filter id="filter0_d" x="0" y="0.802734" width="103" height="103" filterUnits="userSpaceOnUse" color-interpolation-filters="sRGB">
<feFlood flood-opacity="0" result="BackgroundImageFix"/>
<feColorMatrix in="SourceAlpha" type="matrix" values="0 0 0 0 0 0 0 0 0 0 0 0 0 0 0 0 0 0 127 0"/>
<feOffset dy="4"/>
<feGaussianBlur stdDeviation="2"/>
<feColorMatrix type="matrix" values="0 0 0 0 0 0 0 0 0 0 0 0 0 0 0 0 0 0 0.25 0"/>
<feBlend mode="normal" in2="BackgroundImageFix" result="effect1_dropShadow"/>
<feBlend mode="normal" in="SourceGraphic" in2="effect1_dropShadow" result="shape"/>
</filter>
<linearGradient id="paint0_linear" x1="33.016" y1="0.114662" x2="101.602" y2="120.033" gradientUnits="userSpaceOnUse">
<stop stop-color="#DE6161"/>
<stop offset="1" stop-color="#0657EB"/>
</linearGradient>
<linearGradient id="paint1_linear" x1="35.7803" y1="-1.4659" x2="104.367" y2="118.452" gradientUnits="userSpaceOnUse">
<stop stop-color="#DE6161"/>
<stop offset="1" stop-color="#0657EB"/>
</linearGradient>
<linearGradient id="paint2_linear" x1="40.3998" y1="-4.10797" x2="108.986" y2="115.81" gradientUnits="userSpaceOnUse">
<stop stop-color="#DE6161"/>
<stop offset="1" stop-color="#0657EB"/>
</linearGradient>
<linearGradient id="paint3_linear" x1="31.3148" y1="1.08758" x2="99.9012" y2="121.006" gradientUnits="userSpaceOnUse">
<stop stop-color="#DE6161"/>
<stop offset="1" stop-color="#0657EB"/>
</linearGradient>
<linearGradient id="paint4_linear" x1="26.1422" y1="4.04639" x2="94.7286" y2="123.965" gradientUnits="userSpaceOnUse">
<stop stop-color="#DE6161"/>
<stop offset="1" stop-color="#0657EB"/>
</linearGradient>
<linearGradient id="paint5_linear" x1="15.6668" y1="10.0369" x2="84.2531" y2="129.955" gradientUnits="userSpaceOnUse">
<stop stop-color="#DE6161"/>
<stop offset="1" stop-color="#0657EB"/>
</linearGradient>
<linearGradient id="paint6_linear" x1="27.716" y1="3.14564" x2="96.3024" y2="123.064" gradientUnits="userSpaceOnUse">
<stop stop-color="#DE6161"/>
<stop offset="1" stop-color="#0657EB"/>
</linearGradient>
<linearGradient id="paint7_linear" x1="21.7154" y1="6.57698" x2="90.3016" y2="126.495" gradientUnits="userSpaceOnUse">
<stop stop-color="#DE6161"/>
<stop offset="1" stop-color="#0657EB"/>
</linearGradient>
<linearGradient id="paint8_linear" x1="21.4657" y1="6.72007" x2="90.0519" y2="126.638" gradientUnits="userSpaceOnUse">
<stop stop-color="#DE6161"/>
<stop offset="1" stop-color="#0657EB"/>
</linearGradient>
<linearGradient id="paint9_linear" x1="20.6311" y1="7.19745" x2="89.2173" y2="127.116" gradientUnits="userSpaceOnUse">
<stop stop-color="#DE6161"/>
<stop offset="1" stop-color="#0657EB"/>
</linearGradient>
<linearGradient id="paint10_linear" x1="21.9988" y1="6.41539" x2="90.5851" y2="126.333" gradientUnits="userSpaceOnUse">
<stop stop-color="#DE6161"/>
<stop offset="1" stop-color="#0657EB"/>
</linearGradient>
<linearGradient id="paint11_linear" x1="23.1537" y1="5.75597" x2="91.74" y2="125.674" gradientUnits="userSpaceOnUse">
<stop stop-color="#DE6161"/>
<stop offset="1" stop-color="#0657EB"/>
</linearGradient>
<linearGradient id="paint12_linear" x1="25.1973" y1="4.58723" x2="93.784" y2="124.505" gradientUnits="userSpaceOnUse">
<stop stop-color="#DE6161"/>
<stop offset="1" stop-color="#0657EB"/>
</linearGradient>
<linearGradient id="paint13_linear" x1="28.2083" y1="2.86451" x2="96.7937" y2="122.784" gradientUnits="userSpaceOnUse">
<stop stop-color="#DE6161"/>
<stop offset="1" stop-color="#0657EB"/>
</linearGradient>
</defs>
</svg>
