<svg width="104" height="104" viewBox="0 0 104 104" fill="none" xmlns="http://www.w3.org/2000/svg">
<g filter="url(#filter0_d)">
<path d="M51.5234 2.0875C76.7301 2.0875 97.1234 22.4808 97.1234 47.6875C97.1234 72.8942 76.7301 93.2875 51.5234 93.2875C26.3168 93.2875 5.92344 72.8942 5.92344 47.6875C5.92344 22.4808 26.3168 2.0875 51.5234 2.0875ZM51.5234 0.1875C25.3034 0.1875 4.02344 21.4675 4.02344 47.6875C4.02344 73.9075 25.3034 95.1875 51.5234 95.1875C77.7434 95.1875 99.0234 73.9075 99.0234 47.6875C99.0234 21.4675 77.7434 0.1875 51.5234 0.1875Z" fill="#676767"/>
<path d="M54.9433 57.4407L67.61 70.1074C69.0033 71.5007 71.2833 71.5007 72.6767 70.234C74.07 68.8407 74.07 66.5607 72.55 65.1673L60.01 52.6274C59.63 52.2474 58.9967 51.994 58.49 51.994H56.21C54.9433 51.994 53.93 53.0073 54.0567 54.4007L54.31 56.3007C54.4367 56.554 54.5633 57.0607 54.9433 57.4407Z" fill="#F28317" stroke="#676767" stroke-width="1.5" stroke-miterlimit="10"/>
<path d="M59.7567 52.5006L54.9434 57.1873" stroke="#676767" stroke-width="1.5" stroke-miterlimit="10"/>
<path d="M53.5244 53.5593L55.5844 51.4993L44.12 40.0348L42.06 42.0948L53.5244 53.5593Z" fill="#E8BE75" stroke="#676767" stroke-width="1.5" stroke-miterlimit="10"/>
<path d="M27.0769 30.9676L32.9036 25.141C33.9169 24.1276 35.5636 24.1276 36.5769 25.141L43.0369 31.601C45.6969 34.261 45.6969 38.441 43.0369 41.101C40.3769 43.761 36.1969 43.761 33.5369 41.101L27.0769 34.641C26.0636 33.501 26.0636 31.981 27.0769 30.9676Z" fill="#E8BE75" stroke="#676767" stroke-width="1.5" stroke-miterlimit="10"/>
<path d="M35.1836 27.4208L41.0102 33.1208" stroke="#676767" stroke-width="1.5" stroke-miterlimit="10" stroke-linecap="round"/>
<path d="M33.1568 29.4476L38.9834 35.1476" stroke="#676767" stroke-width="1.5" stroke-miterlimit="10" stroke-linecap="round"/>
<path d="M31.13 31.4744L36.9566 37.1744" stroke="#676767" stroke-width="1.5" stroke-miterlimit="10" stroke-linecap="round"/>
<path d="M29.1035 33.5006L34.9302 39.2006" stroke="#676767" stroke-width="1.5" stroke-miterlimit="10" stroke-linecap="round"/>
<path d="M66.8501 65.0408C67.2698 65.0408 67.6101 64.7005 67.6101 64.2808C67.6101 63.8611 67.2698 63.5208 66.8501 63.5208C66.4303 63.5208 66.0901 63.8611 66.0901 64.2808C66.0901 64.7005 66.4303 65.0408 66.8501 65.0408Z" fill="#009688"/>
<path d="M69.7635 67.9539C70.1832 67.9539 70.5235 67.6136 70.5235 67.1939C70.5235 66.7742 70.1832 66.4339 69.7635 66.4339C69.3438 66.4339 69.0035 66.7742 69.0035 67.1939C69.0035 67.6136 69.3438 67.9539 69.7635 67.9539Z" fill="#E6E9EC"/>
<path d="M43.0369 53.0077L30.3702 65.6743C28.9769 67.0677 28.9769 69.3477 30.2436 70.741C31.6369 72.1343 33.9169 72.1343 35.3102 70.6143L47.8502 58.0743C48.2302 57.6943 48.4836 57.061 48.4836 56.5543V54.2743C48.4836 53.0077 47.4702 51.9943 46.0769 52.121L44.1769 52.3743C43.7969 52.3743 43.4169 52.6277 43.0369 53.0077Z" fill="#F28317" stroke="#676767" stroke-width="1.5" stroke-miterlimit="10"/>
<path d="M47.9767 57.6944L43.1633 53.0078" stroke="#676767" stroke-width="1.5" stroke-miterlimit="10"/>
<path d="M46.8447 51.5062L48.9048 53.5662L60.3692 42.1018L58.3092 40.0418L46.8447 51.5062Z" fill="#E8BE75" stroke="#676767" stroke-width="1.5" stroke-miterlimit="10"/>
<path d="M36.07 65.6742C36.4898 65.6742 36.83 65.3339 36.83 64.9142C36.83 64.4944 36.4898 64.1542 36.07 64.1542C35.6503 64.1542 35.31 64.4944 35.31 64.9142C35.31 65.3339 35.6503 65.6742 36.07 65.6742Z" fill="#009688"/>
<path d="M33.1566 68.5873C33.5764 68.5873 33.9166 68.247 33.9166 67.8273C33.9166 67.4075 33.5764 67.0673 33.1566 67.0673C32.7369 67.0673 32.3966 67.4075 32.3966 67.8273C32.3966 68.247 32.7369 68.5873 33.1566 68.5873Z" fill="#E6E9EC"/>
<path d="M68.37 24.0011C69.51 25.1411 69.51 26.9144 68.37 28.0544L63.6834 32.7411C63.05 33.3744 63.05 34.3877 63.6834 35.1477L65.2034 36.6677C65.8367 37.3011 66.85 37.3011 67.61 36.6677L72.2967 31.9811C73.4367 30.8411 75.21 30.8411 76.35 31.9811C76.73 32.3611 76.73 33.1211 76.35 33.5011L69.0034 40.8477C66.47 43.3811 62.5434 43.7611 59.7567 41.4811C56.7167 38.9477 56.4634 34.3877 59.25 31.6011L66.85 24.0011C67.3567 23.6211 67.99 23.6211 68.37 24.0011Z" fill="#E8BE75" stroke="#676767" stroke-width="1.5" stroke-miterlimit="10"/>
</g>
<defs>
<filter id="filter0_d" x="0.0234375" y="0.1875" width="103" height="103" filterUnits="userSpaceOnUse" color-interpolation-filters="sRGB">
<feFlood flood-opacity="0" result="BackgroundImageFix"/>
<feColorMatrix in="SourceAlpha" type="matrix" values="0 0 0 0 0 0 0 0 0 0 0 0 0 0 0 0 0 0 127 0"/>
<feOffset dy="4"/>
<feGaussianBlur stdDeviation="2"/>
<feColorMatrix type="matrix" values="0 0 0 0 0 0 0 0 0 0 0 0 0 0 0 0 0 0 0.25 0"/>
<feBlend mode="normal" in2="BackgroundImageFix" result="effect1_dropShadow"/>
<feBlend mode="normal" in="SourceGraphic" in2="effect1_dropShadow" result="shape"/>
</filter>
</defs>
</svg>
