<svg width="104" height="104" viewBox="0 0 104 104" fill="none" xmlns="http://www.w3.org/2000/svg">
<g filter="url(#filter0_d)">
<path d="M35.1526 27.4207V24.254C35.1526 23.114 36.0393 22.2274 37.1793 22.2274C38.3193 22.2274 39.2059 23.114 39.2059 24.254V27.4207" fill="#F28317"/>
<path d="M35.1526 27.4207V24.254C35.1526 23.114 36.0393 22.2274 37.1793 22.2274C38.3193 22.2274 39.2059 23.114 39.2059 24.254V27.4207" stroke="#676767" stroke-width="1.5" stroke-miterlimit="10"/>
<path d="M62.8928 27.4207V24.254C62.8928 23.114 63.7795 22.2274 64.9195 22.2274C66.0595 22.2274 66.9462 23.114 66.9462 24.254V27.4207" fill="#F28317"/>
<path d="M62.8928 27.4207V24.254C62.8928 23.114 63.7795 22.2274 64.9195 22.2274C66.0595 22.2274 66.9462 23.114 66.9462 24.254V27.4207" stroke="#676767" stroke-width="1.5" stroke-miterlimit="10"/>
<path d="M40.4726 41.8607C40.4726 44.1407 38.6993 45.914 36.4193 45.914C34.1393 45.914 32.366 44.1407 32.366 41.8607" fill="#E8BE75"/>
<path d="M40.4726 41.8607C40.4726 44.1407 38.6993 45.914 36.4193 45.914C34.1393 45.914 32.366 44.1407 32.366 41.8607" stroke="#676767" stroke-width="1.5" stroke-miterlimit="10"/>
<path d="M71.6328 36.2871H75.6861C76.5728 36.2871 77.4595 37.0471 77.4595 38.0604V51.4871C77.4595 52.3738 76.6995 53.2604 75.6861 53.2604H71.6328" fill="#E6E9EC"/>
<path d="M71.6328 36.2871H75.6861C76.5728 36.2871 77.4595 37.0471 77.4595 38.0604V51.4871C77.4595 52.3738 76.6995 53.2604 75.6861 53.2604H71.6328" stroke="#676767" stroke-width="1.5" stroke-miterlimit="10"/>
<path d="M51.7461 2.0875C76.9528 2.0875 97.3461 22.4808 97.3461 47.6875C97.3461 72.8942 76.9528 93.2875 51.7461 93.2875C26.5394 93.2875 6.14609 72.8942 6.14609 47.6875C6.14609 22.4808 26.5394 2.0875 51.7461 2.0875ZM51.7461 0.1875C25.5261 0.1875 4.24609 21.4675 4.24609 47.6875C4.24609 73.9075 25.5261 95.1875 51.7461 95.1875C77.9661 95.1875 99.2461 73.9075 99.2461 47.6875C99.2461 21.4675 77.9661 0.1875 51.7461 0.1875Z" fill="#676767"/>
<path d="M75.1795 73.1474H27.5528C26.4128 73.1474 25.5261 72.2607 25.5261 71.1207C25.5261 69.9807 26.4128 69.0941 27.5528 69.0941H75.1795C76.3195 69.0941 77.2061 69.9807 77.2061 71.1207C77.2061 72.2607 76.3195 73.1474 75.1795 73.1474Z" fill="#F28317" stroke="#676767" stroke-width="1.5" stroke-miterlimit="10"/>
<path d="M58.5863 59.2142V38.9475C58.5863 37.3008 57.3196 36.0342 55.673 36.0342H45.1596C43.513 36.0342 42.2463 37.3008 42.2463 38.9475C42.2463 40.5942 40.9796 41.8608 39.333 41.8608H32.6196C30.973 41.8608 29.7063 40.5942 29.7063 38.9475V30.3342C29.7063 28.6875 30.973 27.4208 32.6196 27.4208H68.8463C70.493 27.4208 71.7596 28.6875 71.7596 30.3342V59.2142" fill="#009688"/>
<path d="M58.5863 59.2142V38.9475C58.5863 37.3008 57.3196 36.0342 55.673 36.0342H45.1596C43.513 36.0342 42.2463 37.3008 42.2463 38.9475C42.2463 40.5942 40.9796 41.8608 39.333 41.8608H32.6196C30.973 41.8608 29.7063 40.5942 29.7063 38.9475V30.3342C29.7063 28.6875 30.973 27.4208 32.6196 27.4208H68.8463C70.493 27.4208 71.7596 28.6875 71.7596 30.3342V59.2142" stroke="#676767" stroke-width="1.5" stroke-miterlimit="10"/>
<path d="M36.4192 45.9143V50.4743" stroke="#676767" stroke-width="1.5" stroke-miterlimit="10"/>
<path d="M65.426 55.0344C66.6852 55.0344 67.706 54.0136 67.706 52.7544C67.706 51.4952 66.6852 50.4744 65.426 50.4744C64.1668 50.4744 63.146 51.4952 63.146 52.7544C63.146 54.0136 64.1668 55.0344 65.426 55.0344Z" fill="#F28317" stroke="#676767" stroke-width="1.5" stroke-miterlimit="10"/>
<path d="M62.8928 47.6875H68.4662" stroke="#676767" stroke-width="1.5" stroke-miterlimit="10" stroke-linecap="round"/>
<path d="M62.8928 43.7607H68.4662" stroke="#676767" stroke-width="1.5" stroke-miterlimit="10" stroke-linecap="round"/>
<path d="M62.8928 39.7078H68.4662" stroke="#676767" stroke-width="1.5" stroke-miterlimit="10" stroke-linecap="round"/>
<path d="M62.8928 35.7809H68.4662" stroke="#676767" stroke-width="1.5" stroke-miterlimit="10" stroke-linecap="round"/>
<path d="M71.7508 59.0002L31.0994 59.2143V69.0943H71.7508V59.0002Z" fill="#E8BE75" stroke="#676767" stroke-width="1.5" stroke-miterlimit="10"/>
</g>
<defs>
<filter id="filter0_d" x="0.246094" y="0.1875" width="103" height="103" filterUnits="userSpaceOnUse" color-interpolation-filters="sRGB">
<feFlood flood-opacity="0" result="BackgroundImageFix"/>
<feColorMatrix in="SourceAlpha" type="matrix" values="0 0 0 0 0 0 0 0 0 0 0 0 0 0 0 0 0 0 127 0"/>
<feOffset dy="4"/>
<feGaussianBlur stdDeviation="2"/>
<feColorMatrix type="matrix" values="0 0 0 0 0 0 0 0 0 0 0 0 0 0 0 0 0 0 0.25 0"/>
<feBlend mode="normal" in2="BackgroundImageFix" result="effect1_dropShadow"/>
<feBlend mode="normal" in="SourceGraphic" in2="effect1_dropShadow" result="shape"/>
</filter>
</defs>
</svg>
