<svg width="104" height="104" viewBox="0 0 104 104" fill="none" xmlns="http://www.w3.org/2000/svg">
<g filter="url(#filter0_d)">
<path d="M52.0791 2.0875C77.2858 2.0875 97.6791 22.4808 97.6791 47.6875C97.6791 72.8942 77.2858 93.2875 52.0791 93.2875C26.8724 93.2875 6.4791 72.8942 6.4791 47.6875C6.4791 22.4808 26.8724 2.0875 52.0791 2.0875ZM52.0791 0.1875C25.8591 0.1875 4.5791 21.4675 4.5791 47.6875C4.5791 73.9075 25.8591 95.1875 52.0791 95.1875C78.2991 95.1875 99.5791 73.9075 99.5791 47.6875C99.5791 21.4675 78.2991 0.1875 52.0791 0.1875Z" fill="#676767"/>
<path d="M62.0858 41.481C60.9458 52.7543 52.0791 62.001 39.6658 62.001C27.2524 62.001 17.2458 52.7543 17.2458 41.481C17.2458 30.2077 27.2524 20.961 39.6658 20.961C42.8324 20.961 45.7458 20.0743 49.0391 21.8477C49.9258 22.3543 50.5591 23.3677 50.4324 24.381V24.5077C50.1791 25.7743 49.0391 28.181 45.1124 32.6143C37.7658 40.9743 56.0058 39.8343 60.9458 37.4277C61.5791 37.1743 62.3391 37.5543 62.3391 38.3143C62.2124 38.9477 62.2124 40.0877 62.0858 41.481Z" fill="#F28317" stroke="#676767" stroke-width="1.5" stroke-miterlimit="10" stroke-linecap="round" stroke-linejoin="round"/>
<path d="M37.6391 55.2876C39.8077 55.2876 41.5658 54.3235 41.5658 53.1343C41.5658 51.945 39.8077 50.981 37.6391 50.981C35.4705 50.981 33.7124 51.945 33.7124 53.1343C33.7124 54.3235 35.4705 55.2876 37.6391 55.2876Z" fill="#C4C4C4" stroke="#676767" stroke-width="1.5" stroke-miterlimit="10" stroke-linecap="round" stroke-linejoin="round"/>
<path d="M27.1257 46.4206C28.245 46.4206 29.1524 45.5132 29.1524 44.3939C29.1524 43.2746 28.245 42.3672 27.1257 42.3672C26.0064 42.3672 25.099 43.2746 25.099 44.3939C25.099 45.5132 26.0064 46.4206 27.1257 46.4206Z" fill="#00A3AD" stroke="#676767" stroke-width="1.5" stroke-miterlimit="10" stroke-linecap="round" stroke-linejoin="round"/>
<path d="M26.8724 37.5543C27.8518 37.5543 28.6457 36.5902 28.6457 35.401C28.6457 34.2117 27.8518 33.2476 26.8724 33.2476C25.893 33.2476 25.099 34.2117 25.099 35.401C25.099 36.5902 25.893 37.5543 26.8724 37.5543Z" fill="#E8BE75" stroke="#676767" stroke-width="1.5" stroke-miterlimit="10" stroke-linecap="round" stroke-linejoin="round"/>
<path d="M35.2324 30.3341C37.3311 30.3341 39.0324 29.5402 39.0324 28.5608C39.0324 27.5814 37.3311 26.7875 35.2324 26.7875C33.1337 26.7875 31.4324 27.5814 31.4324 28.5608C31.4324 29.5402 33.1337 30.3341 35.2324 30.3341Z" fill="#C4C4C4" stroke="#676767" stroke-width="1.5" stroke-miterlimit="10" stroke-linecap="round" stroke-linejoin="round"/>
<path d="M77.919 41.1004L71.079 58.4537C70.699 59.5937 70.1924 60.6071 69.6857 61.6204L61.0724 78.7204C60.3123 80.3671 58.6657 81.2537 57.399 80.6204C56.1324 80.1137 55.7524 78.2137 56.5124 76.5671L63.6057 58.8337C63.9857 57.6937 64.4924 56.6804 64.999 55.6671L73.4857 39.0737" fill="#009688"/>
<path d="M77.919 41.1004L71.079 58.4537C70.699 59.5937 70.1924 60.6071 69.6857 61.6204L61.0723 78.7204C60.3123 80.3671 58.6657 81.2537 57.399 80.6204C56.1324 80.1137 55.7524 78.2137 56.5124 76.5671L63.6057 58.8337C63.9857 57.6937 64.4924 56.6804 64.999 55.6671L73.4857 39.0737" stroke="#676767" stroke-width="1.5" stroke-miterlimit="10" stroke-linecap="round" stroke-linejoin="round"/>
<path d="M69.6856 46.6737L74.6256 48.9537" stroke="#676767" stroke-width="1.5" stroke-miterlimit="10" stroke-linecap="round" stroke-linejoin="round"/>
<path d="M82.0004 24.5004L83.5004 23.0004V23.5004L83.0004 31.0004L81.0004 35.5004L79.5004 38.0004L75.0004 35.5004L76.0004 33.0004L77.5004 31.0004L82.0004 24.5004Z" fill="#E8BE75"/>
<path d="M74.6254 35.4006L76.1454 30.3339C76.5254 29.0672 77.2854 27.9272 78.1721 27.0406L84.1254 21.4672" fill="#E8BE75"/>
<path d="M74.6254 35.4006L76.1454 30.3339C76.5254 29.0672 77.2854 27.9272 78.1721 27.0406L84.1254 21.4672" stroke="#676767" stroke-width="1.5" stroke-miterlimit="10" stroke-linecap="round" stroke-linejoin="round"/>
<path d="M80.0727 37.9342L82.8593 33.5008C83.6193 32.3608 83.9993 31.0942 83.9993 29.7008L84.2527 21.5942" fill="#E8BE75"/>
<path d="M80.0727 37.9342L82.8593 33.5008C83.6193 32.3608 83.9993 31.0942 83.9993 29.7008L84.2527 21.5942" stroke="#676767" stroke-width="1.5" stroke-miterlimit="10" stroke-linecap="round" stroke-linejoin="round"/>
<path d="M78.5527 41.1004L73.1061 38.6937C72.2194 38.3137 71.8394 37.3004 72.2194 36.4137C72.5994 35.527 73.6127 35.147 74.4994 35.527L79.9461 37.9337C80.8327 38.3137 81.2127 39.327 80.8327 40.2137C80.4527 41.1004 79.4394 41.4804 78.5527 41.1004Z" fill="#C4C4C4" stroke="#676767" stroke-width="1.5" stroke-miterlimit="10" stroke-linecap="round" stroke-linejoin="round"/>
</g>
<defs>
<filter id="filter0_d" x="0.579102" y="0.1875" width="103" height="103" filterUnits="userSpaceOnUse" color-interpolation-filters="sRGB">
<feFlood flood-opacity="0" result="BackgroundImageFix"/>
<feColorMatrix in="SourceAlpha" type="matrix" values="0 0 0 0 0 0 0 0 0 0 0 0 0 0 0 0 0 0 127 0"/>
<feOffset dy="4"/>
<feGaussianBlur stdDeviation="2"/>
<feColorMatrix type="matrix" values="0 0 0 0 0 0 0 0 0 0 0 0 0 0 0 0 0 0 0.25 0"/>
<feBlend mode="normal" in2="BackgroundImageFix" result="effect1_dropShadow"/>
<feBlend mode="normal" in="SourceGraphic" in2="effect1_dropShadow" result="shape"/>
</filter>
</defs>
</svg>
