<svg width="104" height="104" viewBox="0 0 104 104" fill="none" xmlns="http://www.w3.org/2000/svg">
<g filter="url(#filter0_d)">
<path d="M52.3008 2.0875C77.5074 2.0875 97.9008 22.4808 97.9008 47.6875C97.9008 72.8942 77.5074 93.2875 52.3008 93.2875C27.0941 93.2875 6.70078 72.8942 6.70078 47.6875C6.70078 22.4808 27.0941 2.0875 52.3008 2.0875ZM52.3008 0.1875C26.0808 0.1875 4.80078 21.4675 4.80078 47.6875C4.80078 73.9075 26.0808 95.1875 52.3008 95.1875C78.5208 95.1875 99.8008 73.9075 99.8008 47.6875C99.8008 21.4675 78.5208 0.1875 52.3008 0.1875Z" fill="#676767"/>
<path d="M39.6341 54.2744C39.6341 54.2744 47.2341 60.2277 47.2341 74.2877" stroke="#676767" stroke-width="1.5" stroke-miterlimit="10" stroke-linecap="round"/>
<path d="M43.1806 58.0743C43.1806 58.0743 41.6606 52.501 48.1206 51.6143C47.994 51.6143 50.4006 56.9343 43.1806 58.0743Z" fill="#009688" stroke="#676767" stroke-width="1.5" stroke-miterlimit="10" stroke-linecap="round"/>
<path d="M46.7275 68.3342C46.7275 68.3342 43.9408 58.3275 34.3142 63.3942C34.3142 63.3942 36.5942 74.5408 46.7275 68.3342Z" fill="#009688" stroke="#676767" stroke-width="1.5" stroke-miterlimit="10" stroke-linecap="round"/>
<path d="M39.254 53.8943C39.254 53.8943 44.4473 47.0543 39.254 42.2409C39.254 42.2409 35.7073 39.2009 35.9606 47.3076C35.9606 47.3076 32.9206 44.1409 30.2606 45.4076C27.6006 46.6743 30.6406 50.8543 32.034 51.2343C32.034 51.2343 26.9673 51.8676 27.2206 54.5276C27.2206 54.5276 30.0073 59.5943 39.254 53.8943Z" fill="#E8BE75" stroke="#676767" stroke-width="1.5" stroke-miterlimit="10" stroke-linecap="round" stroke-linejoin="round"/>
<path d="M65.6008 54.2744C65.6008 54.2744 58.0008 60.2277 58.0008 74.2877" stroke="#676767" stroke-width="1.5" stroke-miterlimit="10" stroke-linecap="round"/>
<path d="M62.0541 58.0743C62.0541 58.0743 63.5741 52.501 57.1141 51.6143C57.1141 51.6143 54.8341 56.9343 62.0541 58.0743Z" fill="#009688" stroke="#676767" stroke-width="1.5" stroke-miterlimit="10" stroke-linecap="round"/>
<path d="M58.5073 68.3342C58.5073 68.3342 61.294 58.3275 70.9207 63.3942C70.9207 63.3942 68.6407 74.5408 58.5073 68.3342Z" fill="#009688" stroke="#676767" stroke-width="1.5" stroke-miterlimit="10" stroke-linecap="round"/>
<path d="M65.854 53.8943C65.854 53.8943 60.6607 47.0543 65.854 42.2409C65.854 42.2409 69.4007 39.2009 69.1473 47.3076C69.1473 47.3076 72.1873 44.1409 74.8473 45.4076C77.5073 46.6743 74.4673 50.8543 73.074 51.2343C73.074 51.2343 78.1407 51.8676 77.8873 54.5276C77.8873 54.5276 75.2273 59.5943 65.854 53.8943Z" fill="#E8BE75" stroke="#676767" stroke-width="1.5" stroke-miterlimit="10" stroke-linecap="round" stroke-linejoin="round"/>
<path d="M53.8207 19.8207L55.0874 23.494C55.3407 24.1274 56.1007 24.5074 56.734 24.1274L60.2807 22.4807C61.294 21.974 62.434 23.114 61.9274 24.1274L60.2807 27.674C60.0274 28.3074 60.2807 29.0674 60.914 29.3207L64.5874 30.5874C65.7274 30.9674 65.7274 32.4874 64.5874 32.8674L60.914 34.134C60.2807 34.3874 59.9007 35.1474 60.2807 35.7807L61.9274 39.3274C62.434 40.3407 61.294 41.4807 60.2807 40.974L56.8607 39.454C56.2274 39.2007 55.4674 39.454 55.214 40.0874L53.9474 43.7607C53.5674 44.9007 52.0474 44.9007 51.6674 43.7607L50.4007 40.0874C50.1474 39.454 49.3874 39.074 48.7541 39.454L45.2074 41.1007C44.194 41.6074 43.054 40.4674 43.5607 39.454L45.2074 35.9074C45.4607 35.274 45.2074 34.514 44.574 34.2607L40.9007 32.994C39.7607 32.614 39.7607 31.094 40.9007 30.714L44.574 29.4474C45.2074 29.194 45.5874 28.434 45.2074 27.8007L43.5607 24.254C43.054 23.2407 44.194 22.1007 45.2074 22.6074L48.7541 24.254C49.3874 24.5074 50.1474 24.254 50.4007 23.6207L51.6674 19.9474C51.9207 18.6807 53.4407 18.6807 53.8207 19.8207Z" fill="#F28317" stroke="#676767" stroke-width="1.5" stroke-miterlimit="10" stroke-linecap="round"/>
<path d="M51.1607 36.794C49.0074 36.1607 47.4874 34.134 47.4874 31.854C47.4874 29.0674 49.7674 26.6607 52.6807 26.6607C55.4674 26.6607 57.8741 28.9407 57.8741 31.854C57.8741 34.134 56.3541 36.1607 54.2007 36.794" fill="#E8BE75"/>
<path d="M51.1607 36.794C49.0074 36.1607 47.4874 34.134 47.4874 31.854C47.4874 29.0674 49.7674 26.6607 52.6807 26.6607C55.4674 26.6607 57.8741 28.9407 57.8741 31.854C57.8741 34.134 56.3541 36.1607 54.2007 36.794" stroke="#676767" stroke-width="1.5" stroke-miterlimit="10" stroke-linecap="round"/>
<path d="M52.6808 44.7744V74.2877" stroke="#676767" stroke-width="1.5" stroke-miterlimit="10" stroke-linecap="round"/>
</g>
<defs>
<filter id="filter0_d" x="0.800781" y="0.1875" width="103" height="103" filterUnits="userSpaceOnUse" color-interpolation-filters="sRGB">
<feFlood flood-opacity="0" result="BackgroundImageFix"/>
<feColorMatrix in="SourceAlpha" type="matrix" values="0 0 0 0 0 0 0 0 0 0 0 0 0 0 0 0 0 0 127 0"/>
<feOffset dy="4"/>
<feGaussianBlur stdDeviation="2"/>
<feColorMatrix type="matrix" values="0 0 0 0 0 0 0 0 0 0 0 0 0 0 0 0 0 0 0.25 0"/>
<feBlend mode="normal" in2="BackgroundImageFix" result="effect1_dropShadow"/>
<feBlend mode="normal" in="SourceGraphic" in2="effect1_dropShadow" result="shape"/>
</filter>
</defs>
</svg>
