<svg width="103" height="104" viewBox="0 0 103 104" fill="none" xmlns="http://www.w3.org/2000/svg">
<g filter="url(#filter0_d)">
<path d="M51.5 0.53125V2.43064C71.127 2.43064 88.6014 14.9666 94.8061 33.7073C102.784 57.513 89.7411 83.4713 65.9354 91.3221C61.2502 92.8417 56.4384 93.6014 51.6266 93.6014C31.873 93.6014 14.3986 81.0654 8.19388 62.3248C4.3951 50.8018 5.28148 38.3924 10.7264 27.5026C16.1713 16.6128 25.5417 8.50869 37.0646 4.70991C41.7498 3.1904 46.5616 2.43064 51.3734 2.43064L51.5 0.53125ZM51.5 0.53125C46.5616 0.53125 41.4965 1.29101 36.5581 2.93715C11.6128 11.1678 -1.80958 38.1392 6.42111 62.9579C13.0057 82.9648 31.6197 95.5008 51.5 95.5008C56.4384 95.5008 61.5035 94.7411 66.4419 93.0949C91.3872 84.8642 104.81 58.0195 96.5789 33.0742C89.9943 13.1939 71.3803 0.53125 51.5 0.53125Z" fill="#676767"/>
<path d="M44.5357 46.7498C44.5357 46.7498 31.2399 51.4349 41.4967 62.4514C41.4967 62.4514 32.8861 88.5364 61.2503 80.179" fill="#F28317"/>
<path d="M44.5357 46.7498C44.5357 46.7498 31.2399 51.4349 41.4967 62.4514C41.4967 62.4514 32.8861 88.5364 61.2503 80.179" stroke="#676767" stroke-width="1.5" stroke-miterlimit="10" stroke-linecap="round" stroke-linejoin="round"/>
<path d="M53.0194 43.8373C53.0194 43.8373 66.5684 39.6587 64.9222 54.6005C64.9222 54.6005 87.4617 70.4288 59.6039 80.5589" fill="#F28317"/>
<path d="M53.0194 43.8373C53.0194 43.8373 66.5684 39.6587 64.9222 54.6005C64.9222 54.6005 87.4617 70.4288 59.6039 80.5589" stroke="#676767" stroke-width="1.5" stroke-miterlimit="10" stroke-linecap="round" stroke-linejoin="round"/>
<path d="M48.7141 59.2859L39.0905 30.5418L47.3212 27.8826L57.0714 57.1333" fill="#E6E9EC"/>
<path d="M48.7141 59.2859L39.0905 30.5418L47.3212 27.8826L57.0714 57.1333" stroke="#676767" stroke-width="1.5" stroke-miterlimit="10" stroke-linecap="round" stroke-linejoin="round"/>
<path d="M48.461 63.844C47.8279 61.9447 48.2078 60.0453 49.3474 58.6524C49.9805 57.766 50.8669 57.1329 52.0065 56.753C54.9189 55.74 58.0846 57.3861 59.0976 60.2985C60.1106 63.2109 58.4645 66.3766 55.5521 67.3896C52.6397 68.4026 49.474 66.7564 48.461 63.844Z" fill="#00A3AD" stroke="#676767" stroke-width="1.5" stroke-miterlimit="10" stroke-linecap="round" stroke-linejoin="round"/>
<path d="M46.9415 28.0093L39.3439 30.5418C38.3309 30.9217 37.3179 30.2886 37.0647 29.4022L33.6458 18.8922C33.2659 17.8792 33.899 16.8662 34.7854 16.6129L42.383 14.0804C43.396 13.7005 44.409 14.3337 44.6622 15.2201L48.0811 25.73C48.461 26.6164 47.9545 27.6294 46.9415 28.0093Z" fill="#E8BE75" stroke="#676767" stroke-width="1.5" stroke-miterlimit="10" stroke-linecap="round" stroke-linejoin="round"/>
<path d="M49.3472 16.2328L45.4218 17.499" stroke="#676767" stroke-width="1.5" stroke-miterlimit="10" stroke-linecap="round" stroke-linejoin="round"/>
<path d="M51.12 23.0704L47.7011 24.2101" stroke="#676767" stroke-width="1.5" stroke-miterlimit="10" stroke-linecap="round" stroke-linejoin="round"/>
<path d="M34.2789 21.1711L30.7334 22.4373" stroke="#676767" stroke-width="1.5" stroke-miterlimit="10" stroke-linecap="round" stroke-linejoin="round"/>
<path d="M36.6847 28.389L33.1391 29.5286" stroke="#676767" stroke-width="1.5" stroke-miterlimit="10" stroke-linecap="round" stroke-linejoin="round"/>
<path d="M53.2729 73.0882L61.3769 70.4291" stroke="#676767" stroke-width="1.5" stroke-miterlimit="10" stroke-linecap="round" stroke-linejoin="round"/>
</g>
<defs>
<filter id="filter0_d" x="0" y="0.53125" width="103" height="102.97" filterUnits="userSpaceOnUse" color-interpolation-filters="sRGB">
<feFlood flood-opacity="0" result="BackgroundImageFix"/>
<feColorMatrix in="SourceAlpha" type="matrix" values="0 0 0 0 0 0 0 0 0 0 0 0 0 0 0 0 0 0 127 0"/>
<feOffset dy="4"/>
<feGaussianBlur stdDeviation="2"/>
<feColorMatrix type="matrix" values="0 0 0 0 0 0 0 0 0 0 0 0 0 0 0 0 0 0 0.25 0"/>
<feBlend mode="normal" in2="BackgroundImageFix" result="effect1_dropShadow"/>
<feBlend mode="normal" in="SourceGraphic" in2="effect1_dropShadow" result="shape"/>
</filter>
</defs>
</svg>
