<svg width="104" height="103" viewBox="0 0 104 103" fill="none" xmlns="http://www.w3.org/2000/svg">
<g filter="url(#filter0_d)">
<path d="M65.37 66.4999C74.49 62.9532 74.6167 54.5932 74.6167 54.5932C75.3767 41.4199 62.33 33.8199 62.33 33.8199C62.33 33.8199 41.05 22.6732 29.9034 41.0399C29.9034 41.0399 22.5567 47.4999 26.61 59.7866C28.6367 66.8799 34.3367 67.1332 34.3367 67.1332" fill="white"/>
<path d="M62.3301 33.8199C62.3301 33.8199 41.0501 22.6732 29.9034 41.0399C29.9034 41.0399 23.5701 46.6132 25.9767 57.5066C26.6101 56.4932 27.8767 55.3532 29.1434 55.0999C32.4367 54.4666 37.6301 59.6599 43.3301 54.7199C48.2701 50.4132 56.7567 50.5399 60.0501 52.5666C62.7101 54.2132 70.4367 55.9866 74.6167 52.5666C74.1101 40.6599 62.3301 33.8199 62.3301 33.8199Z" fill="#E8BE75"/>
<path d="M34.59 68.4C34.4634 68.4 34.4634 68.4 34.59 68.4C34.4634 68.4 32.8167 68.2733 31.0434 67.1333C29.3967 66.12 27.1167 64.0933 25.9767 60.1666C25.09 57.2533 24.5834 54.4667 24.8367 51.8067C24.9634 49.6533 25.47 47.6266 26.23 45.7266C27.4967 42.8133 29.1434 41.1666 29.5234 40.7866C32.1834 36.48 35.4767 33.44 39.53 31.6666C42.8234 30.2733 46.4967 29.64 50.55 30.02C57.39 30.5267 62.5834 33.3133 62.8367 33.3133C62.9634 33.44 66.2567 35.34 69.4234 38.8866C71.3234 41.04 72.8434 43.1933 73.8567 45.6C75.1234 48.5133 75.7567 51.5533 75.5034 54.72C75.5034 54.8466 75.3767 57 74.2367 59.4066C73.4767 60.9266 72.4634 62.1933 71.3234 63.46C69.8034 64.8533 67.9034 66.12 65.75 66.88C65.37 67.0066 64.99 66.88 64.8634 66.5C64.7367 66.12 64.8634 65.74 65.2434 65.6133C68.79 64.22 71.3234 61.94 72.8434 58.9C73.9834 56.62 74.11 54.72 74.11 54.72C74.3634 49.4 72.4634 44.46 68.41 39.9C65.4967 36.6066 62.4567 34.8333 62.2034 34.7066C61.95 34.58 56.7567 31.92 50.4234 31.54C41.81 30.9066 35.2234 34.3266 30.79 41.8L30.6634 41.9266C30.6634 41.9266 28.89 43.4466 27.6234 46.4866C25.9767 50.54 25.9767 54.9733 27.4967 59.9133C28.2567 62.7 29.7767 64.7266 31.93 65.9933C33.45 66.88 34.8434 67.1333 34.8434 67.1333C35.2234 67.1333 35.4767 67.5133 35.4767 67.8933C35.2234 68.1466 34.97 68.4 34.59 68.4Z" fill="#676767"/>
<path d="M55.4901 32.0465C55.4901 32.0465 62.2034 22.5465 66.2567 22.4198C70.1834 22.1665 72.5901 34.7065 69.6767 41.7998" fill="#E8BE75"/>
<path d="M69.8034 42.3066C69.6767 42.3066 69.6767 42.3066 69.5501 42.3066C69.0434 42.1799 68.9167 41.5466 69.0434 41.1666C71.1967 36.0999 70.1834 27.7399 67.9034 24.5732C67.5234 24.0666 66.8901 23.4332 66.2567 23.4332C63.7234 23.5599 58.6567 29.2599 56.2501 32.6799C55.9967 33.0599 55.3634 33.1866 54.9834 32.9332C54.6034 32.6799 54.4767 32.0466 54.7301 31.6666C55.4901 30.6532 61.8234 21.7866 66.1301 21.6599C66.8901 21.6599 68.1567 21.9132 69.2967 23.5599C71.9567 27.2332 73.0967 36.0999 70.6901 41.9266C70.5634 42.1799 70.1834 42.3066 69.8034 42.3066Z" fill="#676767"/>
<path d="M67.9034 39.0133C67.9034 39.0133 62.7101 33.9466 59.1634 33.1866C59.1634 33.1866 62.2034 27.1066 65.4967 26.8533C68.7901 26.7266 67.9034 39.0133 67.9034 39.0133Z" fill="white"/>
<path d="M37.6301 34.073C37.6301 34.073 28.2568 27.233 24.3301 28.373C20.5301 29.3864 21.9234 41.7997 26.8634 47.6264" fill="#E8BE75"/>
<path d="M26.8634 48.3865C26.6101 48.3865 26.4834 48.2598 26.2301 48.1332C22.0501 43.3198 20.4034 34.7065 21.6701 30.2732C22.3034 28.3732 23.3168 27.6132 24.0768 27.4865C28.2567 26.3465 37.1234 32.6798 38.1367 33.4398C38.5167 33.6932 38.6434 34.3265 38.3901 34.7065C38.1367 35.0865 37.5034 35.2132 37.1234 34.9598C33.5767 32.4265 27.1167 28.6265 24.5834 29.3865C23.9501 29.5132 23.5701 30.3998 23.3168 31.0332C22.1768 34.8332 23.8234 43.0665 27.4968 47.1198C27.8768 47.4998 27.7501 48.0065 27.3701 48.3865C27.3701 48.3865 27.1168 48.3865 26.8634 48.3865Z" fill="#676767"/>
<path d="M47.3834 59.4067C47.3834 59.4067 47.3834 59.5334 47.3834 59.66C47.51 60.8 48.5234 65.4867 52.07 64.98C56.1234 64.3467 56.8834 61.3067 56.3767 57.8867L51.5634 58.2667L47.3834 59.4067Z" fill="#F78C8B"/>
<path d="M51.0567 65.8667C47.6367 65.4867 46.75 61.18 46.4967 59.7867C46.4967 59.66 46.4967 59.5333 46.4967 59.5333C46.4967 59.1533 46.75 58.7733 47.13 58.6467L51.31 57.38H51.4367L56.3767 57C56.8834 57 57.2634 57.2533 57.2634 57.76C58.15 63.5867 55.11 65.4867 52.1967 65.8667C51.8167 65.8667 51.4367 65.8667 51.0567 65.8667ZM48.3967 60.04C48.65 61.3067 49.41 63.9667 51.31 64.0933C51.5634 64.0933 51.69 64.0933 51.9434 64.0933C53.7167 63.84 55.9967 62.9533 55.6167 58.7733L51.69 59.0267L48.3967 60.04Z" fill="#676767"/>
<path d="M28.0034 44.7133C28.0034 44.7133 31.2967 38.2533 34.4634 36.4799C34.4634 36.4799 29.6501 31.6666 26.4834 32.4266C23.3167 33.1866 28.0034 44.7133 28.0034 44.7133Z" fill="white"/>
<path d="M43.4567 57.7599C43.4567 57.7599 46.3701 63.2066 51.8167 58.5199C51.8167 58.5199 58.2767 61.3066 58.9101 54.5933" fill="white"/>
<path d="M47.2567 61.3065C47.1301 61.3065 47.0034 61.3065 46.8767 61.3065C44.0901 60.7998 42.8234 58.2665 42.6967 58.2665C42.4434 57.8865 42.5701 57.2531 43.0767 57.1265C43.4567 56.8731 44.0901 56.9998 44.2167 57.5065C44.2167 57.5065 45.2301 59.4065 47.0034 59.6598C48.2701 59.9131 49.6634 59.4065 51.1834 58.0131C51.4367 57.7598 51.8167 57.7598 52.0701 57.8865C52.0701 57.8865 54.7301 59.0265 56.3767 57.8865C57.2634 57.3798 57.7701 56.2398 57.8967 54.5931C57.8967 54.0865 58.4034 53.7065 58.7834 53.8331C59.2901 53.8331 59.6701 54.3398 59.5434 54.7198C59.4167 56.8731 58.5301 58.5198 57.1367 59.2798C55.2367 60.4198 52.8301 59.9131 51.8167 59.5331C50.4234 60.9265 48.7767 61.4331 47.2567 61.3065Z" fill="#676767"/>
<path d="M56.6301 48.7666C56.3767 48.7666 56.1234 48.64 55.9967 48.3866C55.7434 48.0066 55.8701 47.3733 56.2501 47.12C56.3767 46.9933 59.0367 45.3466 61.4434 45.22C61.9501 45.22 62.3301 45.6 62.3301 45.98C62.3301 46.4866 61.9501 46.8666 61.5701 46.8666C59.5434 46.9933 57.1367 48.5133 57.1367 48.5133C57.0101 48.7666 56.7567 48.7666 56.6301 48.7666Z" fill="#676767"/>
<path d="M55.3634 52.44C55.49 53.8333 54.0967 56.4933 51.9434 56.7467C49.79 57 47.7634 54.72 47.51 53.3267C47.3834 51.9333 49.03 51.4267 51.1834 51.1733C53.3367 50.92 55.11 51.0467 55.3634 52.44Z" fill="#676767"/>
<path d="M39.1501 49.9067C38.7701 49.9067 38.5167 49.6534 38.3901 49.2734C38.2634 48.7667 38.6434 48.3867 39.0234 48.26C41.4301 47.7534 44.7234 48.3867 44.9767 48.5134C45.4834 48.64 45.7367 49.02 45.6101 49.5267C45.4834 50.0334 45.1034 50.2867 44.5967 50.16C44.5967 50.16 41.4301 49.5267 39.4034 49.9067C39.2767 49.9067 39.2767 49.9067 39.1501 49.9067Z" fill="#676767"/>
<path d="M52.45 62.9533C52.3234 62.9533 52.3234 62.9533 52.45 62.9533C51.9434 62.8266 51.5634 62.4466 51.69 61.94C51.9434 60.2933 51.1834 59.1533 51.1834 59.1533C50.93 58.7733 51.0567 58.2666 51.4367 57.8866C51.8167 57.6333 52.3234 57.6333 52.7034 58.14C52.7034 58.2666 53.97 59.9133 53.4634 62.32C53.21 62.7 52.83 62.9533 52.45 62.9533Z" fill="#676767"/>
<path d="M51.8167 59.5334C51.4367 59.5334 51.0567 59.1534 51.0567 58.7734C50.9301 57.2534 50.9301 56.4934 50.9301 56.4934C50.9301 55.9867 51.3101 55.6067 51.8167 55.6067C52.3234 55.6067 52.7034 55.9867 52.7034 56.4934C52.7034 56.4934 52.7034 57.1267 52.8301 58.6467C52.8301 59.1534 52.45 59.5334 52.07 59.5334C51.9434 59.5334 51.8167 59.5334 51.8167 59.5334Z" fill="#676767"/>
<path d="M57.0885 43.9825C58.0293 43.376 58.4232 42.3124 57.9684 41.6069C57.5136 40.9013 56.3822 40.8209 55.4415 41.4273C54.5007 42.0338 54.1067 43.0974 54.5616 43.803C55.0164 44.5085 56.1478 44.5889 57.0885 43.9825Z" fill="white"/>
<path d="M46.1874 44.8385C46.3647 44.0179 45.6215 43.1611 44.5273 42.9247C43.4332 42.6883 42.4026 43.1619 42.2253 43.9825C42.048 44.803 42.7912 45.6599 43.8853 45.8963C44.9794 46.1327 46.0101 45.6591 46.1874 44.8385Z" fill="white"/>
<path d="M93.9967 67.6399H9.89001C9.51001 67.6399 9.13 67.2599 9.13 66.8799C9.13 66.4999 9.51001 66.1199 9.89001 66.1199H93.9967C94.3767 66.1199 94.7567 66.4999 94.7567 66.8799C94.7567 67.2599 94.3767 67.6399 93.9967 67.6399Z" fill="#676767"/>
<path d="M35.0967 62.6998C39.0234 68.9065 34.3367 70.4265 34.3367 70.4265C33.3234 74.0998 29.6501 72.4532 29.6501 72.4532C26.6101 73.7198 25.0901 70.4265 25.0901 70.4265C21.4167 70.5532 21.7967 65.2332 23.1901 63.0798C24.4567 60.6732 32.1834 58.0132 35.0967 62.6998Z" fill="white"/>
<path d="M31.4234 73.4665C30.6634 73.4665 30.03 73.2132 29.65 73.0865C29.1434 73.2132 28.7634 73.3398 28.2567 73.3398C26.23 73.3398 25.09 71.8198 24.5834 71.0598C23.4434 70.9332 22.5567 70.4265 22.05 69.4132C21.5434 68.5265 21.29 67.2598 21.5434 65.8665C21.67 64.5998 22.05 63.4598 22.5567 62.5732C23.57 60.7998 26.99 59.4065 30.03 59.4065C31.17 59.4065 32.31 59.6598 33.1967 60.0398C34.21 60.5465 35.0967 61.3065 35.73 62.3198C37.3767 64.8532 37.7567 66.8798 37.1234 68.6532C36.6167 70.0465 35.4767 70.6798 34.8434 70.9332C34.3367 72.5798 33.07 73.4665 31.4234 73.4665ZM29.65 71.5665L29.9034 71.6932C29.9034 71.6932 30.6634 71.9465 31.4234 71.9465C32.5634 71.9465 33.1967 71.3132 33.5767 70.0465L33.7034 69.6665L34.0834 69.5398C34.0834 69.5398 35.35 69.1598 35.73 67.8932C36.2367 66.6265 35.73 64.9798 34.4634 62.9532C33.3234 61.1798 31.2967 60.7998 29.9034 60.7998C26.99 60.7998 24.33 62.3198 23.6967 63.3332C22.9367 64.7265 22.5567 67.2598 23.3167 68.6532C23.6967 69.2865 24.2034 69.5398 24.9634 69.5398H25.47L25.7234 69.9198C25.7234 69.9198 26.61 71.8198 28.2567 71.8198C28.6367 71.8198 29.0167 71.6932 29.3967 71.5665H29.65Z" fill="#676767"/>
<path d="M24.9633 71.0598C24.8366 71.0598 24.71 71.0598 24.4566 70.9331C24.2033 70.6798 24.0766 70.1731 24.33 69.9198C24.5833 69.6665 24.8366 69.1598 24.8366 69.0331C24.71 68.6531 24.9633 68.2731 25.3433 68.1465C25.7233 68.0198 26.1033 68.2731 26.23 68.6531C26.3566 69.4131 25.7233 70.2998 25.47 70.6798C25.47 70.9331 25.2166 71.0598 24.9633 71.0598Z" fill="#676767"/>
<path d="M29.65 72.7066C29.65 72.7066 29.5233 72.7066 29.65 72.7066C29.27 72.7066 28.89 72.3266 28.89 71.9466C28.89 71.5666 28.89 70.9333 28.89 70.6799C28.89 70.2999 29.1433 69.9199 29.5233 69.9199C29.9033 69.9199 30.2833 70.1733 30.2833 70.5533C30.2833 71.0599 30.2833 71.9466 30.2833 72.0732C30.2833 72.4532 30.03 72.7066 29.65 72.7066Z" fill="#676767"/>
<path d="M34.21 70.8066C33.9567 70.8066 33.7034 70.6799 33.5767 70.4266C33.45 70.0466 33.07 69.5399 32.8167 69.2866C32.5634 69.0333 32.5634 68.5266 32.8167 68.2733C33.07 68.0199 33.5767 68.0199 33.83 68.2733C34.3367 68.6533 34.7167 69.5399 34.8434 69.7932C34.97 70.1732 34.8434 70.5533 34.4634 70.8066C34.3367 70.6799 34.21 70.8066 34.21 70.8066Z" fill="#676767"/>
<path d="M66.6367 62.6998C62.7101 68.9065 67.3967 70.4265 67.3967 70.4265C68.4101 74.0998 72.0834 72.4532 72.0834 72.4532C75.1234 73.7198 76.6434 70.4265 76.6434 70.4265C80.3167 70.5532 79.9367 65.2332 78.5434 63.0798C77.2767 60.6732 69.5501 58.0132 66.6367 62.6998Z" fill="white"/>
<path d="M66.8901 70.9332C66.2567 70.6798 65.2434 70.0465 64.6101 68.6532C63.9767 67.0065 64.4834 64.8532 66.0034 62.3198C66.6367 61.3065 67.5234 60.5465 68.5367 60.0398C69.4234 59.6598 70.5634 59.4065 71.7034 59.4065C74.7434 59.4065 78.0367 60.9265 79.1767 62.5732C79.6834 63.4598 80.0634 64.5998 80.19 65.8665C80.3167 67.2598 80.0634 68.5265 79.6834 69.4132C79.1767 70.4265 78.2901 70.9332 77.1501 71.0598C76.6434 71.8198 75.5034 73.3398 73.4767 73.3398C73.0967 73.3398 72.5901 73.2132 72.0834 73.0865C71.7034 73.2132 71.0701 73.4665 70.3101 73.4665C68.6634 73.4665 67.3967 72.5798 66.8901 70.9332ZM72.3367 71.6932C72.7167 71.8198 73.0967 71.9465 73.4767 71.9465C75.1234 71.9465 76.0101 70.0465 76.0101 70.0465L76.2634 69.6665H76.77C77.53 69.6665 78.1634 69.4132 78.4167 68.7798C79.1767 67.3865 78.7967 64.8532 78.0367 63.4598C77.4034 62.4465 74.7434 60.9265 71.8301 60.9265C70.4367 60.9265 68.41 61.3065 67.2701 63.0798C66.0034 65.1065 65.4967 66.8798 66.0034 68.0198C66.3834 69.1598 67.6501 69.5398 67.6501 69.6665L68.0301 69.7932L68.1567 70.1732C68.5367 71.4398 69.2967 72.0732 70.3101 72.0732C71.0701 72.0732 71.8301 71.8198 71.8301 71.8198L72.0834 71.6932H72.3367Z" fill="#676767"/>
<path d="M76.77 71.0598C76.8967 71.0598 77.0234 71.0598 77.2767 70.9331C77.53 70.6798 77.6567 70.1731 77.4034 69.9198C77.15 69.6665 76.8967 69.1598 76.8967 69.0331C77.0234 68.6531 76.77 68.2731 76.39 68.1465C76.01 68.0198 75.63 68.2731 75.5034 68.6531C75.3767 69.4131 76.01 70.2998 76.2634 70.6798C76.2634 70.9331 76.5167 71.0598 76.77 71.0598Z" fill="#676767"/>
<path d="M72.0834 72.7066C72.0834 72.7066 72.2101 72.7066 72.0834 72.7066C72.4634 72.7066 72.8434 72.3266 72.8434 71.9466C72.8434 71.5666 72.8434 70.9333 72.8434 70.6799C72.8434 70.2999 72.5901 69.9199 72.2101 69.9199C71.8301 69.9199 71.4501 70.1733 71.4501 70.5533C71.4501 71.0599 71.4501 71.9466 71.4501 72.0732C71.4501 72.4532 71.7034 72.7066 72.0834 72.7066Z" fill="#676767"/>
<path d="M67.5234 70.8066C67.7767 70.8066 68.03 70.6799 68.1567 70.4266C68.2834 70.0466 68.6634 69.5399 68.9167 69.2866C69.17 69.0333 69.17 68.5266 68.9167 68.2733C68.6634 68.0199 68.1567 68.0199 67.9034 68.2733C67.3967 68.6533 67.0167 69.5399 66.89 69.7932C66.7634 70.1732 66.89 70.5533 67.27 70.8066C67.3967 70.6799 67.5234 70.8066 67.5234 70.8066Z" fill="#676767"/>
<path d="M51.9434 1.9C77.15 1.9 97.5434 22.2933 97.5434 47.5C97.5434 72.7067 77.15 93.1 51.9434 93.1C26.7367 93.1 6.34336 72.7067 6.34336 47.5C6.34336 22.2933 26.7367 1.9 51.9434 1.9ZM51.9434 0C25.7234 0 4.44336 21.28 4.44336 47.5C4.44336 73.72 25.7234 95 51.9434 95C78.1634 95 99.4434 73.72 99.4434 47.5C99.4434 21.28 78.1634 0 51.9434 0Z" fill="#676767"/>
</g>
<defs>
<filter id="filter0_d" x="0.443359" y="0" width="103" height="103" filterUnits="userSpaceOnUse" color-interpolation-filters="sRGB">
<feFlood flood-opacity="0" result="BackgroundImageFix"/>
<feColorMatrix in="SourceAlpha" type="matrix" values="0 0 0 0 0 0 0 0 0 0 0 0 0 0 0 0 0 0 127 0"/>
<feOffset dy="4"/>
<feGaussianBlur stdDeviation="2"/>
<feColorMatrix type="matrix" values="0 0 0 0 0 0 0 0 0 0 0 0 0 0 0 0 0 0 0.25 0"/>
<feBlend mode="normal" in2="BackgroundImageFix" result="effect1_dropShadow"/>
<feBlend mode="normal" in="SourceGraphic" in2="effect1_dropShadow" result="shape"/>
</filter>
</defs>
</svg>
