<svg width="103" height="104" viewBox="0 0 103 104" fill="none" xmlns="http://www.w3.org/2000/svg">
<g filter="url(#filter0_d)">
<path d="M98.25 48.0312C98.25 73.8506 77.3193 94.7812 51.5 94.7812C25.6807 94.7812 4.75 73.8506 4.75 48.0312C4.75 22.2119 25.6807 1.28125 51.5 1.28125C77.3193 1.28125 98.25 22.2119 98.25 48.0312Z" stroke="#676767" stroke-width="1.5"/>
<g clip-path="url(#clip0)">
<path d="M26.9877 70.6608H75.1358" stroke="#676767" stroke-width="1.5" stroke-miterlimit="10" stroke-linecap="round"/>
<path d="M53.7778 70.4121L66.3704 68.5468C70.321 67.9251 69.3333 59.8422 65.2593 60.5883C61.1852 61.3344 52.6667 61.4587 52.6667 61.4587H51.5556C51.5556 61.4587 41.8025 61.3344 37.8519 60.5883C33.9012 59.8422 32.7901 67.9251 36.7407 68.5468L49.4568 70.4121C49.4568 70.4121 53.1605 70.4121 53.7778 70.4121Z" fill="#00A3AD" stroke="#676767" stroke-width="1.5" stroke-miterlimit="10" stroke-linecap="round" stroke-linejoin="round"/>
<path d="M49.4568 69.9147V66.6816L42.0494 63.1997" stroke="#676767" stroke-width="1.5" stroke-miterlimit="10" stroke-linecap="round" stroke-linejoin="round"/>
<path d="M49.4568 66.9302L51.5556 66.0598L57.6049 67.6763L59.0864 69.9147C59.0864 69.9147 52.7901 70.6608 50.4445 70.5364C48.0988 70.2877 49.4568 66.9302 49.4568 66.9302Z" fill="#E6E9EC" stroke="#676767" stroke-width="1.5" stroke-miterlimit="10" stroke-linecap="round" stroke-linejoin="round"/>
<path d="M53.7778 66.5572L60.0741 63.5728" stroke="#676767" stroke-width="1.5" stroke-miterlimit="10" stroke-linecap="round"/>
<path d="M44.642 60.9612C44.642 60.9612 48.0988 55.4897 44.642 48.6503V44.1736H57.7284V48.6503C54.2716 55.6141 57.7284 60.9612 57.7284 60.9612H44.642Z" fill="#F28317" stroke="#676767" stroke-width="1.5" stroke-miterlimit="10" stroke-linecap="round" stroke-linejoin="round"/>
<path d="M44.642 44.1737L42.6667 38.0805C42.5432 37.7074 42.6667 37.3344 42.9136 37.0856L50.8148 30.6193C51.0617 30.495 51.1852 30.2463 51.1852 29.9976V24.5261H49.8272L48.3457 28.0079C48.2222 28.381 47.9753 28.754 47.6049 29.1271L39.9506 35.7178C39.0864 36.4639 38.716 37.5831 39.0864 38.7022L41.679 46.7851C42.0494 48.0287 43.284 48.8991 44.642 48.6504" fill="#E6E9EC"/>
<path d="M44.642 44.1737L42.6667 38.0805C42.5432 37.7074 42.6667 37.3344 42.9136 37.0856L50.8148 30.6193C51.0617 30.495 51.1852 30.2463 51.1852 29.9976V24.5261H49.8272L48.3457 28.0079C48.2222 28.381 47.9753 28.754 47.6049 29.1271L39.9506 35.7178C39.0864 36.4639 38.716 37.5831 39.0864 38.7022L41.679 46.7851C42.0494 48.0287 43.284 48.8991 44.642 48.6504" stroke="#676767" stroke-width="1.5" stroke-miterlimit="10" stroke-linecap="round"/>
<path d="M57.7284 44.1737L59.7037 38.0805C59.8271 37.7074 59.7037 37.3344 59.4568 37.0856L51.5555 30.6193C51.3086 30.495 51.1852 30.2463 51.1852 29.9976V24.5261H52.5432L54.0247 28.0079C54.1481 28.381 54.395 28.754 54.7654 29.1271L62.4197 35.7178C63.2839 36.4639 63.6543 37.5831 63.2839 38.7022L60.6913 46.7851C60.321 48.0287 59.0864 48.8991 57.7284 48.6504" fill="#E6E9EC"/>
<path d="M57.7284 44.1737L59.7037 38.0805C59.8271 37.7074 59.7037 37.3344 59.4568 37.0856L51.5555 30.6193C51.3086 30.495 51.1852 30.2463 51.1852 29.9976V24.5261H52.5432L54.0247 28.0079C54.1481 28.381 54.395 28.754 54.7654 29.1271L62.4197 35.7178C63.2839 36.4639 63.6543 37.5831 63.2839 38.7022L60.6913 46.7851C60.321 48.0287 59.0864 48.8991 57.7284 48.6504" stroke="#676767" stroke-width="1.5" stroke-miterlimit="10" stroke-linecap="round"/>
<path d="M54.642 44.1736C54.642 46.0389 53.0371 47.6555 51.1852 47.6555C49.3334 47.6555 47.7284 46.0389 47.7284 44.1736" fill="#E6E9EC"/>
<path d="M54.642 44.1736C54.642 46.0389 53.0371 47.6555 51.1852 47.6555C49.3334 47.6555 47.7284 46.0389 47.7284 44.1736" stroke="#676767" stroke-width="1.5" stroke-miterlimit="10" stroke-linecap="round"/>
<path d="M49.2099 35.0961V32.9821C49.2099 32.1116 50.0741 31.4899 51.1852 31.4899C52.2963 31.4899 53.1605 32.1116 53.1605 32.9821V35.0961H49.2099Z" fill="#E8BE75" stroke="#676767" stroke-width="1.5" stroke-miterlimit="10" stroke-linecap="round" stroke-linejoin="round"/>
<path d="M47.2346 39.9458V40.4432C47.2346 42.6816 48.963 44.4225 51.1852 44.4225C53.4074 44.4225 55.1358 42.6816 55.1358 40.4432V39.9458L51.1852 38.3292L47.2346 39.9458Z" fill="#E6E9EC" stroke="#676767" stroke-width="1.5" stroke-miterlimit="10" stroke-linecap="round" stroke-linejoin="round"/>
<path d="M51.1852 35.4691C48.963 35.4691 47.2346 37.21 47.2346 39.4483V39.9457L51.1852 38.3292L55.1358 39.9457V39.4483C55.1358 37.21 53.4074 35.4691 51.1852 35.4691Z" fill="#E8BE75" stroke="#676767" stroke-width="1.5" stroke-miterlimit="10" stroke-linecap="round" stroke-linejoin="round"/>
<path d="M46 52.2566H56.3704" stroke="#676767" stroke-width="1.5" stroke-miterlimit="10" stroke-linecap="round" stroke-linejoin="round"/>
</g>
</g>
<defs>
<filter id="filter0_d" x="0" y="0.53125" width="103" height="103" filterUnits="userSpaceOnUse" color-interpolation-filters="sRGB">
<feFlood flood-opacity="0" result="BackgroundImageFix"/>
<feColorMatrix in="SourceAlpha" type="matrix" values="0 0 0 0 0 0 0 0 0 0 0 0 0 0 0 0 0 0 127 0"/>
<feOffset dy="4"/>
<feGaussianBlur stdDeviation="2"/>
<feColorMatrix type="matrix" values="0 0 0 0 0 0 0 0 0 0 0 0 0 0 0 0 0 0 0.25 0"/>
<feBlend mode="normal" in2="BackgroundImageFix" result="effect1_dropShadow"/>
<feBlend mode="normal" in="SourceGraphic" in2="effect1_dropShadow" result="shape"/>
</filter>
<clipPath id="clip0">
<rect width="50" height="48" fill="white" transform="translate(26 23.5312)"/>
</clipPath>
</defs>
</svg>
