<svg width="103" height="103" viewBox="0 0 103 103" fill="none" xmlns="http://www.w3.org/2000/svg">
<g filter="url(#filter0_d_7549_26451)">
<path d="M51.5 1.93089C76.6016 1.93089 97.0691 22.3984 97.0691 47.5C97.0691 72.6016 76.6016 92.9404 51.5 92.9404C26.3984 92.9404 5.93089 72.4729 5.93089 47.3713C5.93089 22.2696 26.3984 1.93089 51.5 1.93089ZM51.5 0C25.2398 0 4 21.2398 4 47.5C4 73.7602 25.2398 95 51.5 95C77.7602 95 99 73.7602 99 47.5C99 21.2398 77.6314 0 51.5 0Z" fill="#676767"/>
</g>
<g filter="url(#filter1_d_7549_26451)">
<path d="M72.1591 47.1585L73.02 71.3057C73.0309 71.6474 73.1736 71.9716 73.4182 72.2104C73.6629 72.4492 73.9905 72.584 74.3324 72.5865V72.5865C74.5047 72.5907 74.6762 72.5609 74.837 72.4988C74.9979 72.4367 75.1449 72.3435 75.2697 72.2245C75.3945 72.1056 75.4946 71.9632 75.5644 71.8056C75.6341 71.6479 75.6721 71.478 75.6762 71.3057L76.5371 47.1585C75.1247 46.635 73.5715 46.635 72.1591 47.1585Z" fill="#E6E9EC"/>
<path d="M70.4282 34.7266L71.4303 46.8643C73.1706 46.3144 75.035 46.3144 76.7752 46.8643L77.7773 34.7016C76.5689 34.3685 75.3171 34.2249 74.0657 34.2757C72.8378 34.2424 71.6118 34.3943 70.4282 34.7266V34.7266Z" fill="#009688"/>
<path d="M76.3248 20.9823C75.7288 20.8397 74.7832 20.6173 74.1717 20.6172C73.0274 20.6121 71.896 20.8687 70.8577 21.3689L71.8901 25.6642C71.9056 25.7249 71.9093 25.7881 71.901 25.8503C71.8927 25.9124 71.8726 25.9722 71.8418 26.0262C71.8111 26.0802 71.7703 26.1273 71.7218 26.1647C71.6734 26.2021 71.6183 26.2291 71.5597 26.2441C71.5014 26.2599 71.4405 26.2633 71.3809 26.2539C71.3212 26.2444 71.4321 26.1913 71.3809 26.1582C71.3297 26.125 71.4368 26.0262 71.2148 26.0262C71.3484 25.9436 71.1926 25.9201 71.1806 25.8586L70.2411 21.7995C69.8813 22.0299 69.3684 22.3157 69.0406 22.5931L69.9285 25.6857C69.9502 25.7688 69.9502 25.8564 69.9284 25.9395C69.9066 26.0225 69.8639 26.098 69.8046 26.1582C69.7534 26.2134 69.6894 26.254 69.6188 26.2763C69.5612 26.2944 69.5007 26.3004 69.4408 26.2939C69.381 26.2875 69.3229 26.2687 69.2701 26.2387C69.2173 26.2088 69.2512 26.1535 69.2136 26.1046C69.1759 26.0558 69.148 25.9996 69.1314 25.9395L68.3276 23.2425C67.9749 23.6408 67.0392 24.3651 66.7528 24.8173L70.6306 34.2656C70.8746 34.1715 71.1271 34.1031 71.3842 34.0616C73.1828 33.7608 75.0161 33.7608 76.8147 34.0616C77.0755 34.1017 77.778 34.3849 78.0251 34.4805L81.3701 24.7516C81.2012 24.4675 80.6036 23.5019 80.4012 23.2425L79.5402 26.3085C79.4981 26.4253 79.4152 26.5212 79.3079 26.5769C79.2007 26.6327 79.3188 26.5607 79.2037 26.5256C79.0891 26.4818 79.1219 26.4225 79.0681 26.3085C79.0142 26.1945 79.0047 26.0634 79.0414 25.9423L80.4012 23.2425C80.3083 23.1566 79.6435 22.5984 79.5402 22.5125C79.3206 22.301 78.9724 22.2522 78.7246 22.0776L78.0226 25.385C77.998 25.4721 77.9558 25.5527 77.8987 25.6213C77.8429 25.676 77.7755 25.7162 77.7019 25.7386C77.6284 25.761 77.7288 25.7534 77.6535 25.7386C77.5348 25.7081 77.6796 25.7298 77.6158 25.6213C77.552 25.5127 77.5319 25.3824 77.56 25.2585L78.3343 21.629C78.0041 21.4344 77.2335 21.181 76.8766 21.0468L76.0404 26.6199C76.0273 26.7207 75.9839 26.8147 75.9165 26.8884C75.8659 26.9412 75.8039 26.9805 75.7355 27.0029C75.6672 27.0254 75.5947 27.0303 75.5242 27.0172C75.4042 26.9961 75.6331 27.0773 75.5616 26.9749C75.4902 26.8725 75.4603 26.7451 75.4782 26.6199L76.3248 20.9823Z" fill="#FEF9F3"/>
<path d="M66.0178 24.2923C65.9791 24.3818 65.9591 24.4783 65.9591 24.5758C65.9591 24.6733 65.9791 24.7697 66.0178 24.8592L69.7973 35.505C69.7973 35.505 69.7973 35.505 69.7973 35.568L70.7317 46.7492L71.6031 71.3584C71.6142 71.8888 71.7815 72.4041 72.0839 72.84C72.3864 73.2759 72.8106 73.6129 73.3036 73.809C73.7965 74.005 74.3363 74.0514 74.8555 73.9423C75.3747 73.8333 75.8502 73.5735 76.2226 73.1957C76.7036 72.7019 76.9842 72.0472 77.01 71.3584L77.8814 46.7387L78.8263 35.589C78.8263 35.589 78.8263 35.589 78.8263 35.526L82.6899 24.8172C82.7286 24.7278 82.7485 24.6313 82.7485 24.5338C82.7485 24.4363 82.7286 24.3398 82.6899 24.2503C81.8635 22.7742 80.6605 21.5436 79.2035 20.6842C77.7464 19.8247 76.0874 19.367 74.3958 19.3579C72.6891 19.3725 71.0163 19.8363 69.5456 20.7025C68.0749 21.5687 66.8582 22.8068 66.0178 24.2923ZM75.6767 71.3059C75.6684 71.6484 75.5265 71.9742 75.2813 72.2135C75.0361 72.4529 74.707 72.5868 74.3643 72.5867V72.5867C74.0224 72.5842 73.6948 72.4494 73.4502 72.2106C73.2055 71.9718 73.0628 71.6476 73.052 71.3059L72.1911 47.1587C73.594 46.643 75.1346 46.643 76.5376 47.1587L75.6767 71.3059ZM76.6321 45.7308C75.1554 45.2699 73.5733 45.2699 72.0966 45.7308L71.2462 35.5575C72.2719 35.2798 73.3339 35.1594 74.3958 35.2005C75.4578 35.158 76.52 35.2783 77.5454 35.5575L76.6321 45.7308ZM75.6767 27.1165C75.7484 27.1292 75.8221 27.1244 75.8916 27.1025C75.9611 27.0805 76.0242 27.0421 76.0756 26.9905C76.1442 26.9184 76.1883 26.8266 76.2016 26.728L77.052 21.2791C77.4149 21.4103 77.7661 21.5719 78.1019 21.7621L77.3145 25.3107C77.286 25.4318 77.3063 25.5592 77.3712 25.6653C77.4361 25.7715 77.5402 25.8478 77.6609 25.8776C77.7375 25.8921 77.8165 25.8883 77.8913 25.8664C77.9661 25.8445 78.0347 25.8051 78.0914 25.7516C78.1494 25.6846 78.1924 25.6058 78.2174 25.5207L78.9313 22.287C79.1832 22.4577 79.4219 22.6473 79.6452 22.854C79.7502 22.938 79.8342 23.0324 79.9287 23.1164L78.8788 26.1191C78.8415 26.2375 78.8512 26.3657 78.9059 26.4772C78.9607 26.5886 79.0562 26.6747 79.1728 26.7175C79.2898 26.7518 79.4154 26.7405 79.5245 26.686C79.6335 26.6315 79.7179 26.5377 79.7607 26.4236L80.6006 23.8934C80.8064 24.147 80.9957 24.4135 81.1675 24.6913L77.7659 34.2032C77.5146 34.1097 77.2542 34.0429 76.989 34.0037C75.16 33.7096 73.2957 33.7096 71.4666 34.0037C71.2051 34.0443 70.9484 34.1111 70.7002 34.2032L67.2881 24.7542C67.597 24.2916 67.9447 23.8561 68.3275 23.4524L69.0939 26.0246C69.1108 26.0834 69.1392 26.1383 69.1774 26.1861C69.2157 26.2338 69.2631 26.2735 69.3168 26.3028C69.3705 26.3321 69.4295 26.3505 69.4904 26.3568C69.5512 26.3631 69.6128 26.3572 69.6714 26.3396C69.7431 26.3178 69.8082 26.278 69.8603 26.2241C69.9206 26.1653 69.964 26.0915 69.9862 26.0102C70.0083 25.929 70.0084 25.8434 69.9863 25.7621L69.1254 22.7175C69.4587 22.4463 69.8094 22.1973 70.1753 21.9721L71.1307 25.9406C71.143 26.0007 71.1673 26.0577 71.2024 26.108C71.2374 26.1584 71.2823 26.2011 71.3344 26.2335C71.3865 26.2659 71.4446 26.2874 71.5052 26.2966C71.5659 26.3058 71.6278 26.3026 71.6871 26.2871C71.7467 26.2724 71.8027 26.246 71.852 26.2094C71.9012 26.1728 71.9427 26.1268 71.974 26.074C72.0053 26.0213 72.0257 25.9628 72.0341 25.902C72.0426 25.8413 72.0388 25.7794 72.0231 25.7201L70.9732 21.5206C72.0291 21.0316 73.1797 20.7807 74.3433 20.7857C74.9652 20.7858 75.5851 20.8562 76.1911 20.9957L75.3197 26.56C75.2946 26.6811 75.3179 26.8071 75.3846 26.9111C75.4514 27.0151 75.5562 27.0888 75.6767 27.1165V27.1165Z" fill="#676767"/>
</g>
<g filter="url(#filter2_d_7549_26451)">
<path d="M60.8156 74H23.1844C21.9929 74 21 73.0071 21 71.8156V34.1844C21.0993 32.9929 21.9929 32 23.1844 32H60.8156C62.0071 32 63 32.9929 63 34.1844V71.8156C63 73.0071 62.0071 74 60.8156 74Z" fill="#E6E9EC"/>
<path d="M60.8156 74H23.1844C21.9929 74 21 73.0071 21 71.8156V34.1844C21.0993 32.9929 21.9929 32 23.1844 32H60.8156C62.0071 32 63 32.9929 63 34.1844V71.8156C63 73.0071 62.0071 74 60.8156 74Z" fill="#676767"/>
<path d="M58.0751 52H43.8324C43.3699 52 43 51.6279 43 51.1628V36.8372C43 36.3721 43.3699 36 43.8324 36H58.1676C58.6301 36 59 36.3721 59 36.8372V51.2558C58.9075 51.6279 58.5376 52 58.0751 52Z" fill="#FCE6D0"/>
<path d="M40.1676 52H25.8324C25.3699 52 25 51.6279 25 51.1628V36.8372C25 36.3721 25.3699 36 25.8324 36H40.1676C40.6301 36 41 36.3721 41 36.8372V51.2558C41 51.6279 40.6301 52 40.1676 52Z" fill="#FEF9F3"/>
<path d="M58.0751 70H43.8324C43.3699 70 43 69.6301 43 69.1676V54.8324C43 54.3699 43.3699 54 43.8324 54H58.1676C58.6301 54 59 54.3699 59 54.8324V69.1676C58.9075 69.6301 58.5376 70 58.0751 70Z" fill="#FF8E8E"/>
<path d="M40.1676 70H25.8324C25.3699 70 25 69.6301 25 69.1676V54.8324C25 54.3699 25.3699 54 25.8324 54H40.1676C40.6301 54 41 54.3699 41 54.8324V69.1676C41 69.6301 40.6301 70 40.1676 70Z" fill="#F7B573"/>
</g>
<defs>
<filter id="filter0_d_7549_26451" x="0" y="0" width="103" height="103" filterUnits="userSpaceOnUse" color-interpolation-filters="sRGB">
<feFlood flood-opacity="0" result="BackgroundImageFix"/>
<feColorMatrix in="SourceAlpha" type="matrix" values="0 0 0 0 0 0 0 0 0 0 0 0 0 0 0 0 0 0 127 0" result="hardAlpha"/>
<feOffset dy="4"/>
<feGaussianBlur stdDeviation="2"/>
<feComposite in2="hardAlpha" operator="out"/>
<feColorMatrix type="matrix" values="0 0 0 0 0 0 0 0 0 0 0 0 0 0 0 0 0 0 0.25 0"/>
<feBlend mode="normal" in2="BackgroundImageFix" result="effect1_dropShadow_7549_26451"/>
<feBlend mode="normal" in="SourceGraphic" in2="effect1_dropShadow_7549_26451" result="shape"/>
</filter>
<filter id="filter1_d_7549_26451" x="61.959" y="19.3579" width="24.7896" height="62.6421" filterUnits="userSpaceOnUse" color-interpolation-filters="sRGB">
<feFlood flood-opacity="0" result="BackgroundImageFix"/>
<feColorMatrix in="SourceAlpha" type="matrix" values="0 0 0 0 0 0 0 0 0 0 0 0 0 0 0 0 0 0 127 0" result="hardAlpha"/>
<feOffset dy="4"/>
<feGaussianBlur stdDeviation="2"/>
<feComposite in2="hardAlpha" operator="out"/>
<feColorMatrix type="matrix" values="0 0 0 0 0 0 0 0 0 0 0 0 0 0 0 0 0 0 0.25 0"/>
<feBlend mode="normal" in2="BackgroundImageFix" result="effect1_dropShadow_7549_26451"/>
<feBlend mode="normal" in="SourceGraphic" in2="effect1_dropShadow_7549_26451" result="shape"/>
</filter>
<filter id="filter2_d_7549_26451" x="17" y="32" width="50" height="50" filterUnits="userSpaceOnUse" color-interpolation-filters="sRGB">
<feFlood flood-opacity="0" result="BackgroundImageFix"/>
<feColorMatrix in="SourceAlpha" type="matrix" values="0 0 0 0 0 0 0 0 0 0 0 0 0 0 0 0 0 0 127 0" result="hardAlpha"/>
<feOffset dy="4"/>
<feGaussianBlur stdDeviation="2"/>
<feComposite in2="hardAlpha" operator="out"/>
<feColorMatrix type="matrix" values="0 0 0 0 0 0 0 0 0 0 0 0 0 0 0 0 0 0 0.25 0"/>
<feBlend mode="normal" in2="BackgroundImageFix" result="effect1_dropShadow_7549_26451"/>
<feBlend mode="normal" in="SourceGraphic" in2="effect1_dropShadow_7549_26451" result="shape"/>
</filter>
</defs>
</svg>
